<?xml version="1.0" encoding="utf-8" standalone="no"?>
<!DOCTYPE svg PUBLIC "-//W3C//DTD SVG 1.1//EN"
  "http://www.w3.org/Graphics/SVG/1.1/DTD/svg11.dtd">
<svg xmlns:xlink="http://www.w3.org/1999/xlink" width="524.2425pt" height="313.23578pt" viewBox="0 0 524.2425 313.23578" xmlns="http://www.w3.org/2000/svg" version="1.1">
 <metadata>
  <rdf:RDF xmlns:dc="http://purl.org/dc/elements/1.1/" xmlns:cc="http://creativecommons.org/ns#" xmlns:rdf="http://www.w3.org/1999/02/22-rdf-syntax-ns#">
   <cc:Work>
    <dc:type rdf:resource="http://purl.org/dc/dcmitype/StillImage"/>
    <dc:date>2025-10-19T15:14:42.875547</dc:date>
    <dc:format>image/svg+xml</dc:format>
    <dc:creator>
     <cc:Agent>
      <dc:title>Matplotlib v3.10.6, https://matplotlib.org/</dc:title>
     </cc:Agent>
    </dc:creator>
   </cc:Work>
  </rdf:RDF>
 </metadata>
 <defs>
  <style type="text/css">*{stroke-linejoin: round; stroke-linecap: butt}</style>
 </defs>
 <g id="figure_1">
  <g id="patch_1">
   <path d="M 0 313.23578 
L 524.2425 313.23578 
L 524.2425 0 
L 0 0 
z
" style="fill: #ffffff"/>
  </g>
  <g id="axes_1">
   <g id="patch_2">
    <path d="M 56.6625 288.57328 
L 253.1925 288.57328 
L 253.1925 52.0704 
L 56.6625 52.0704 
z
" style="fill: #ffffff"/>
   </g>
   <g id="FillBetweenPolyCollection_1">
    <defs>
     <path id="m08d07cd2fc" d="M 95.536815 -30.705382 
L 95.209094 -30.705382 
L 95.158006 -32.161224 
L 95.096268 -33.617067 
L 95.023406 -35.07291 
L 94.939446 -36.528752 
L 94.845013 -37.984595 
L 94.741355 -39.440437 
L 94.63031 -40.89628 
L 94.514182 -42.352123 
L 94.395533 -43.807965 
L 94.276917 -45.263808 
L 94.160566 -46.719651 
L 94.048084 -48.175493 
L 93.940191 -49.631336 
L 93.836562 -51.087178 
L 93.735805 -52.543021 
L 93.635575 -53.998864 
L 93.532842 -55.454706 
L 93.42425 -56.910549 
L 93.306532 -58.366392 
L 93.176888 -59.822234 
L 93.03326 -61.278077 
L 92.874422 -62.73392 
L 92.699851 -64.189762 
L 92.509358 -65.645605 
L 92.30251 -67.101447 
L 92.077908 -68.55729 
L 91.832415 -70.013133 
L 91.560457 -71.468975 
L 91.253508 -72.924818 
L 90.899876 -74.380661 
L 90.484863 -75.836503 
L 89.991345 -77.292346 
L 89.40077 -78.748188 
L 88.694512 -80.204031 
L 87.855505 -81.659874 
L 86.870021 -83.115716 
L 85.729435 -84.571559 
L 84.431831 -86.027402 
L 82.983271 -87.483244 
L 81.398611 -88.939087 
L 79.701739 -90.394929 
L 77.925182 -91.850772 
L 76.109059 -93.306615 
L 74.299416 -94.762457 
L 72.546047 -96.2183 
L 70.89992 -97.674143 
L 69.410394 -99.129985 
L 68.12241 -100.585828 
L 67.073878 -102.041671 
L 66.29344 -103.497513 
L 65.798791 -104.953356 
L 65.595682 -106.409198 
L 65.677693 -107.865041 
L 66.026795 -109.320884 
L 66.614651 -110.776726 
L 67.404555 -112.232569 
L 68.353845 -113.688412 
L 69.416585 -115.144254 
L 70.546286 -116.600097 
L 71.698447 -118.055939 
L 72.83271 -119.511782 
L 73.914473 -120.967625 
L 74.915893 -122.423467 
L 75.816259 -123.87931 
L 76.601817 -125.335153 
L 77.265177 -126.790995 
L 77.804488 -128.246838 
L 78.222572 -129.70268 
L 78.526172 -131.158523 
L 78.725443 -132.614366 
L 78.833701 -134.070208 
L 78.867397 -135.526051 
L 78.846188 -136.981894 
L 78.792921 -138.437736 
L 78.733374 -139.893579 
L 78.695578 -141.349422 
L 78.708651 -142.805264 
L 78.801172 -144.261107 
L 78.999196 -145.716949 
L 79.324138 -147.172792 
L 79.790792 -148.628635 
L 80.405761 -150.084477 
L 81.166553 -151.54032 
L 82.06148 -152.996163 
L 83.070436 -154.452005 
L 84.166461 -155.907848 
L 85.317905 -157.36369 
L 86.490957 -158.819533 
L 87.652218 -160.275376 
L 88.771054 -161.731218 
L 89.821484 -163.187061 
L 90.783468 -164.642904 
L 91.643517 -166.098746 
L 92.394666 -167.554589 
L 93.035907 -169.010432 
L 93.571227 -170.466274 
L 94.008427 -171.922117 
L 94.357862 -173.377959 
L 94.631264 -174.833802 
L 96.114645 -174.833802 
L 96.114645 -174.833802 
L 96.388047 -173.377959 
L 96.737482 -171.922117 
L 97.174682 -170.466274 
L 97.710002 -169.010432 
L 98.351243 -167.554589 
L 99.102392 -166.098746 
L 99.962441 -164.642904 
L 100.924425 -163.187061 
L 101.974855 -161.731218 
L 103.093691 -160.275376 
L 104.254952 -158.819533 
L 105.428004 -157.36369 
L 106.579448 -155.907848 
L 107.675473 -154.452005 
L 108.68443 -152.996163 
L 109.579356 -151.54032 
L 110.340148 -150.084477 
L 110.955117 -148.628635 
L 111.421771 -147.172792 
L 111.746713 -145.716949 
L 111.944737 -144.261107 
L 112.037258 -142.805264 
L 112.050331 -141.349422 
L 112.012535 -139.893579 
L 111.952988 -138.437736 
L 111.899721 -136.981894 
L 111.878512 -135.526051 
L 111.912208 -134.070208 
L 112.020466 -132.614366 
L 112.219737 -131.158523 
L 112.523337 -129.70268 
L 112.941421 -128.246838 
L 113.480732 -126.790995 
L 114.144092 -125.335153 
L 114.92965 -123.87931 
L 115.830017 -122.423467 
L 116.831436 -120.967625 
L 117.913199 -119.511782 
L 119.047462 -118.055939 
L 120.199623 -116.600097 
L 121.329324 -115.144254 
L 122.392064 -113.688412 
L 123.341354 -112.232569 
L 124.131258 -110.776726 
L 124.719114 -109.320884 
L 125.068216 -107.865041 
L 125.150227 -106.409198 
L 124.947118 -104.953356 
L 124.452469 -103.497513 
L 123.672031 -102.041671 
L 122.623499 -100.585828 
L 121.335515 -99.129985 
L 119.845989 -97.674143 
L 118.199863 -96.2183 
L 116.446494 -94.762457 
L 114.63685 -93.306615 
L 112.820727 -91.850772 
L 111.04417 -90.394929 
L 109.347298 -88.939087 
L 107.762638 -87.483244 
L 106.314078 -86.027402 
L 105.016474 -84.571559 
L 103.875889 -83.115716 
L 102.890404 -81.659874 
L 102.051397 -80.204031 
L 101.345139 -78.748188 
L 100.754564 -77.292346 
L 100.261047 -75.836503 
L 99.846033 -74.380661 
L 99.492401 -72.924818 
L 99.185452 -71.468975 
L 98.913494 -70.013133 
L 98.668001 -68.55729 
L 98.443399 -67.101447 
L 98.236551 -65.645605 
L 98.046059 -64.189762 
L 97.871488 -62.73392 
L 97.71265 -61.278077 
L 97.569021 -59.822234 
L 97.439378 -58.366392 
L 97.321659 -56.910549 
L 97.213067 -55.454706 
L 97.110334 -53.998864 
L 97.010104 -52.543021 
L 96.909347 -51.087178 
L 96.805718 -49.631336 
L 96.697825 -48.175493 
L 96.585343 -46.719651 
L 96.468992 -45.263808 
L 96.350376 -43.807965 
L 96.231728 -42.352123 
L 96.115599 -40.89628 
L 96.004554 -39.440437 
L 95.900896 -37.984595 
L 95.806463 -36.528752 
L 95.722504 -35.07291 
L 95.649641 -33.617067 
L 95.587904 -32.161224 
L 95.536815 -30.705382 
z
" style="stroke: #595959; stroke-width: 1.25"/>
    </defs>
    <g clip-path="url(#p3b5a433957)">
     <use xlink:href="#m08d07cd2fc" x="0" y="313.23578" style="fill: #72b6a1; stroke: #595959; stroke-width: 1.25"/>
    </g>
   </g>
   <g id="FillBetweenPolyCollection_2">
    <defs>
     <path id="m38866253c0" d="M 214.669161 -136.04436 
L 214.29493 -136.04436 
L 214.234564 -136.860615 
L 214.159052 -137.67687 
L 214.065994 -138.493125 
L 213.95301 -139.30938 
L 213.817862 -140.125634 
L 213.658603 -140.941889 
L 213.473737 -141.758144 
L 213.262392 -142.574399 
L 213.024496 -143.390654 
L 212.760938 -144.206909 
L 212.473707 -145.023163 
L 212.165997 -145.839418 
L 211.842256 -146.655673 
L 211.50817 -147.471928 
L 211.170577 -148.288183 
L 210.837293 -149.104437 
L 210.516861 -149.920692 
L 210.218221 -150.736947 
L 209.950317 -151.553202 
L 209.721666 -152.369457 
L 209.539911 -153.185712 
L 209.411396 -154.001966 
L 209.340782 -154.818221 
L 209.330761 -155.634476 
L 209.381862 -156.450731 
L 209.492389 -157.266986 
L 209.658485 -158.08324 
L 209.874314 -158.899495 
L 210.132353 -159.71575 
L 210.423754 -160.532005 
L 210.73875 -161.34826 
L 211.067061 -162.164515 
L 211.398281 -162.980769 
L 211.722191 -163.797024 
L 212.028993 -164.613279 
L 212.309452 -165.429534 
L 212.554931 -166.245789 
L 212.757336 -167.062043 
L 212.908989 -167.878298 
L 213.002447 -168.694553 
L 213.030302 -169.510808 
L 212.984995 -170.327063 
L 212.858672 -171.143318 
L 212.643125 -171.959572 
L 212.329836 -172.775827 
L 211.91015 -173.592082 
L 211.375593 -174.408337 
L 210.718338 -175.224592 
L 209.931794 -176.040846 
L 209.011321 -176.857101 
L 207.955003 -177.673356 
L 206.764425 -178.489611 
L 205.445395 -179.305866 
L 204.008513 -180.122121 
L 202.469496 -180.938375 
L 200.849201 -181.75463 
L 199.173247 -182.570885 
L 197.47124 -183.38714 
L 195.775573 -184.203395 
L 194.119887 -185.019649 
L 192.537276 -185.835904 
L 191.058402 -186.652159 
L 189.709704 -187.468414 
L 188.511886 -188.284669 
L 187.478884 -189.100924 
L 186.617444 -189.917178 
L 185.927396 -190.733433 
L 185.402617 -191.549688 
L 185.032587 -192.365943 
L 184.804372 -193.182198 
L 184.704773 -193.998452 
L 184.722386 -194.814707 
L 184.849285 -195.630962 
L 185.082106 -196.447217 
L 185.422378 -197.263472 
L 185.876043 -198.079727 
L 186.452236 -198.895981 
L 187.161467 -199.712236 
L 188.013466 -200.528491 
L 189.014968 -201.344746 
L 190.167727 -202.161001 
L 191.467037 -202.977256 
L 192.900925 -203.79351 
L 194.450127 -204.609765 
L 196.088838 -205.42602 
L 197.78613 -206.242275 
L 199.50786 -207.05853 
L 201.218849 -207.874784 
L 202.885084 -208.691039 
L 204.475715 -209.507294 
L 205.964678 -210.323549 
L 207.331815 -211.139804 
L 208.563444 -211.956059 
L 209.652381 -212.772313 
L 210.597505 -213.588568 
L 211.40295 -214.404823 
L 212.077064 -215.221078 
L 212.631258 -216.037333 
L 213.07886 -216.853587 
L 215.885231 -216.853587 
L 215.885231 -216.853587 
L 216.332833 -216.037333 
L 216.887027 -215.221078 
L 217.561141 -214.404823 
L 218.366586 -213.588568 
L 219.31171 -212.772313 
L 220.400647 -211.956059 
L 221.632275 -211.139804 
L 222.999413 -210.323549 
L 224.488376 -209.507294 
L 226.079007 -208.691039 
L 227.745242 -207.874784 
L 229.456231 -207.05853 
L 231.177961 -206.242275 
L 232.875253 -205.42602 
L 234.513964 -204.609765 
L 236.063166 -203.79351 
L 237.497054 -202.977256 
L 238.796364 -202.161001 
L 239.949123 -201.344746 
L 240.950625 -200.528491 
L 241.802624 -199.712236 
L 242.511855 -198.895981 
L 243.088048 -198.079727 
L 243.541713 -197.263472 
L 243.881985 -196.447217 
L 244.114806 -195.630962 
L 244.241705 -194.814707 
L 244.259318 -193.998452 
L 244.159719 -193.182198 
L 243.931504 -192.365943 
L 243.561474 -191.549688 
L 243.036695 -190.733433 
L 242.346647 -189.917178 
L 241.485207 -189.100924 
L 240.452205 -188.284669 
L 239.254387 -187.468414 
L 237.905689 -186.652159 
L 236.426815 -185.835904 
L 234.844204 -185.019649 
L 233.188518 -184.203395 
L 231.492851 -183.38714 
L 229.790844 -182.570885 
L 228.11489 -181.75463 
L 226.494595 -180.938375 
L 224.955578 -180.122121 
L 223.518696 -179.305866 
L 222.199666 -178.489611 
L 221.009088 -177.673356 
L 219.95277 -176.857101 
L 219.032297 -176.040846 
L 218.245753 -175.224592 
L 217.588497 -174.408337 
L 217.053941 -173.592082 
L 216.634255 -172.775827 
L 216.320966 -171.959572 
L 216.105419 -171.143318 
L 215.979096 -170.327063 
L 215.933789 -169.510808 
L 215.961644 -168.694553 
L 216.055102 -167.878298 
L 216.206755 -167.062043 
L 216.40916 -166.245789 
L 216.654639 -165.429534 
L 216.935098 -164.613279 
L 217.2419 -163.797024 
L 217.56581 -162.980769 
L 217.89703 -162.164515 
L 218.225341 -161.34826 
L 218.540336 -160.532005 
L 218.831738 -159.71575 
L 219.089777 -158.899495 
L 219.305606 -158.08324 
L 219.471701 -157.266986 
L 219.582229 -156.450731 
L 219.63333 -155.634476 
L 219.623309 -154.818221 
L 219.552695 -154.001966 
L 219.42418 -153.185712 
L 219.242425 -152.369457 
L 219.013774 -151.553202 
L 218.74587 -150.736947 
L 218.447229 -149.920692 
L 218.126798 -149.104437 
L 217.793514 -148.288183 
L 217.455921 -147.471928 
L 217.121835 -146.655673 
L 216.798094 -145.839418 
L 216.490384 -145.023163 
L 216.203153 -144.206909 
L 215.939595 -143.390654 
L 215.701699 -142.574399 
L 215.490354 -141.758144 
L 215.305488 -140.941889 
L 215.146229 -140.125634 
L 215.011081 -139.30938 
L 214.898097 -138.493125 
L 214.805038 -137.67687 
L 214.729526 -136.860615 
L 214.669161 -136.04436 
z
" style="stroke: #595959; stroke-width: 1.25"/>
    </defs>
    <g clip-path="url(#p3b5a433957)">
     <use xlink:href="#m38866253c0" x="0" y="313.23578" style="fill: #e99675; stroke: #595959; stroke-width: 1.25"/>
    </g>
   </g>
   <g id="matplotlib.axis_1">
    <g id="xtick_1">
     <g id="line2d_1">
      <defs>
       <path id="me72c3d85b1" d="M 0 0 
L 0 3.5 
" style="stroke: #000000; stroke-width: 0.8"/>
      </defs>
      <g>
       <use xlink:href="#me72c3d85b1" x="95.372955" y="288.57328" style="stroke: #000000; stroke-width: 0.8"/>
      </g>
     </g>
     <g id="text_1">
      <!-- Unweighted -->
      <g transform="translate(56.270455 306.18328) scale(0.16 -0.16)">
       <defs>
        <path id="TimesNewRomanPSMT-55" d="M 3053 4122 
L 3053 4238 
L 4553 4238 
L 4553 4122 
L 4394 4122 
Q 4144 4122 4009 3913 
Q 3944 3816 3944 3463 
L 3944 1744 
Q 3944 1106 3817 754 
Q 3691 403 3320 151 
Q 2950 -100 2313 -100 
Q 1619 -100 1259 140 
Q 900 381 750 788 
Q 650 1066 650 1831 
L 650 3488 
Q 650 3878 542 4000 
Q 434 4122 194 4122 
L 34 4122 
L 34 4238 
L 1866 4238 
L 1866 4122 
L 1703 4122 
Q 1441 4122 1328 3956 
Q 1250 3844 1250 3488 
L 1250 1641 
Q 1250 1394 1295 1075 
Q 1341 756 1459 578 
Q 1578 400 1801 284 
Q 2025 169 2350 169 
Q 2766 169 3094 350 
Q 3422 531 3542 814 
Q 3663 1097 3663 1772 
L 3663 3488 
Q 3663 3884 3575 3984 
Q 3453 4122 3213 4122 
L 3053 4122 
z
" transform="scale(0.015625)"/>
        <path id="TimesNewRomanPSMT-6e" d="M 1034 2341 
Q 1538 2947 1994 2947 
Q 2228 2947 2397 2830 
Q 2566 2713 2666 2444 
Q 2734 2256 2734 1869 
L 2734 647 
Q 2734 375 2778 278 
Q 2813 200 2889 156 
Q 2966 113 3172 113 
L 3172 0 
L 1756 0 
L 1756 113 
L 1816 113 
Q 2016 113 2095 173 
Q 2175 234 2206 353 
Q 2219 400 2219 647 
L 2219 1819 
Q 2219 2209 2117 2386 
Q 2016 2563 1775 2563 
Q 1403 2563 1034 2156 
L 1034 647 
Q 1034 356 1069 288 
Q 1113 197 1189 155 
Q 1266 113 1500 113 
L 1500 0 
L 84 0 
L 84 113 
L 147 113 
Q 366 113 442 223 
Q 519 334 519 647 
L 519 1709 
Q 519 2225 495 2337 
Q 472 2450 423 2490 
Q 375 2531 294 2531 
Q 206 2531 84 2484 
L 38 2597 
L 900 2947 
L 1034 2947 
L 1034 2341 
z
" transform="scale(0.015625)"/>
        <path id="TimesNewRomanPSMT-77" d="M 41 2863 
L 1241 2863 
L 1241 2747 
Q 1075 2734 1023 2687 
Q 972 2641 972 2553 
Q 972 2456 1025 2319 
L 1638 672 
L 2253 2013 
L 2091 2434 
Q 2016 2622 1894 2694 
Q 1825 2738 1638 2747 
L 1638 2863 
L 3000 2863 
L 3000 2747 
Q 2775 2738 2681 2666 
Q 2619 2616 2619 2506 
Q 2619 2444 2644 2378 
L 3294 734 
L 3897 2319 
Q 3959 2488 3959 2588 
Q 3959 2647 3898 2694 
Q 3838 2741 3659 2747 
L 3659 2863 
L 4563 2863 
L 4563 2747 
Q 4291 2706 4163 2378 
L 3206 -88 
L 3078 -88 
L 2363 1741 
L 1528 -88 
L 1413 -88 
L 494 2319 
Q 403 2547 315 2626 
Q 228 2706 41 2747 
L 41 2863 
z
" transform="scale(0.015625)"/>
        <path id="TimesNewRomanPSMT-65" d="M 681 1784 
Q 678 1147 991 784 
Q 1303 422 1725 422 
Q 2006 422 2214 576 
Q 2422 731 2563 1106 
L 2659 1044 
Q 2594 616 2278 264 
Q 1963 -88 1488 -88 
Q 972 -88 605 314 
Q 238 716 238 1394 
Q 238 2128 614 2539 
Q 991 2950 1559 2950 
Q 2041 2950 2350 2633 
Q 2659 2316 2659 1784 
L 681 1784 
z
M 681 1966 
L 2006 1966 
Q 1991 2241 1941 2353 
Q 1863 2528 1708 2628 
Q 1553 2728 1384 2728 
Q 1125 2728 920 2526 
Q 716 2325 681 1966 
z
" transform="scale(0.015625)"/>
        <path id="TimesNewRomanPSMT-69" d="M 928 4444 
Q 1059 4444 1151 4351 
Q 1244 4259 1244 4128 
Q 1244 3997 1151 3903 
Q 1059 3809 928 3809 
Q 797 3809 703 3903 
Q 609 3997 609 4128 
Q 609 4259 701 4351 
Q 794 4444 928 4444 
z
M 1188 2947 
L 1188 647 
Q 1188 378 1227 289 
Q 1266 200 1342 156 
Q 1419 113 1622 113 
L 1622 0 
L 231 0 
L 231 113 
Q 441 113 512 153 
Q 584 194 626 287 
Q 669 381 669 647 
L 669 1750 
Q 669 2216 641 2353 
Q 619 2453 572 2492 
Q 525 2531 444 2531 
Q 356 2531 231 2484 
L 188 2597 
L 1050 2947 
L 1188 2947 
z
" transform="scale(0.015625)"/>
        <path id="TimesNewRomanPSMT-67" d="M 966 1044 
Q 703 1172 562 1401 
Q 422 1631 422 1909 
Q 422 2334 742 2640 
Q 1063 2947 1563 2947 
Q 1972 2947 2272 2747 
L 2878 2747 
Q 3013 2747 3034 2739 
Q 3056 2731 3066 2713 
Q 3084 2684 3084 2613 
Q 3084 2531 3069 2500 
Q 3059 2484 3036 2475 
Q 3013 2466 2878 2466 
L 2506 2466 
Q 2681 2241 2681 1891 
Q 2681 1491 2375 1206 
Q 2069 922 1553 922 
Q 1341 922 1119 984 
Q 981 866 932 777 
Q 884 688 884 625 
Q 884 572 936 522 
Q 988 472 1138 450 
Q 1225 438 1575 428 
Q 2219 413 2409 384 
Q 2700 344 2873 169 
Q 3047 -6 3047 -263 
Q 3047 -616 2716 -925 
Q 2228 -1381 1444 -1381 
Q 841 -1381 425 -1109 
Q 191 -953 191 -784 
Q 191 -709 225 -634 
Q 278 -519 444 -313 
Q 466 -284 763 25 
Q 600 122 533 198 
Q 466 275 466 372 
Q 466 481 555 628 
Q 644 775 966 1044 
z
M 1509 2797 
Q 1278 2797 1122 2612 
Q 966 2428 966 2047 
Q 966 1553 1178 1281 
Q 1341 1075 1591 1075 
Q 1828 1075 1981 1253 
Q 2134 1431 2134 1813 
Q 2134 2309 1919 2591 
Q 1759 2797 1509 2797 
z
M 934 0 
Q 788 -159 713 -296 
Q 638 -434 638 -550 
Q 638 -700 819 -813 
Q 1131 -1006 1722 -1006 
Q 2284 -1006 2551 -807 
Q 2819 -609 2819 -384 
Q 2819 -222 2659 -153 
Q 2497 -84 2016 -72 
Q 1313 -53 934 0 
z
" transform="scale(0.015625)"/>
        <path id="TimesNewRomanPSMT-68" d="M 1041 4444 
L 1041 2350 
Q 1388 2731 1591 2839 
Q 1794 2947 1997 2947 
Q 2241 2947 2416 2812 
Q 2591 2678 2675 2391 
Q 2734 2191 2734 1659 
L 2734 647 
Q 2734 375 2778 275 
Q 2809 200 2884 156 
Q 2959 113 3159 113 
L 3159 0 
L 1753 0 
L 1753 113 
L 1819 113 
Q 2019 113 2097 173 
Q 2175 234 2206 353 
Q 2216 403 2216 647 
L 2216 1659 
Q 2216 2128 2167 2275 
Q 2119 2422 2012 2495 
Q 1906 2569 1756 2569 
Q 1603 2569 1437 2487 
Q 1272 2406 1041 2159 
L 1041 647 
Q 1041 353 1073 281 
Q 1106 209 1195 161 
Q 1284 113 1503 113 
L 1503 0 
L 84 0 
L 84 113 
Q 275 113 384 172 
Q 447 203 484 290 
Q 522 378 522 647 
L 522 3238 
Q 522 3728 498 3840 
Q 475 3953 426 3993 
Q 378 4034 297 4034 
Q 231 4034 84 3984 
L 41 4094 
L 897 4444 
L 1041 4444 
z
" transform="scale(0.015625)"/>
        <path id="TimesNewRomanPSMT-74" d="M 1031 3803 
L 1031 2863 
L 1700 2863 
L 1700 2644 
L 1031 2644 
L 1031 788 
Q 1031 509 1111 412 
Q 1191 316 1316 316 
Q 1419 316 1516 380 
Q 1613 444 1666 569 
L 1788 569 
Q 1678 263 1478 108 
Q 1278 -47 1066 -47 
Q 922 -47 784 33 
Q 647 113 581 261 
Q 516 409 516 719 
L 516 2644 
L 63 2644 
L 63 2747 
Q 234 2816 414 2980 
Q 594 3144 734 3369 
Q 806 3488 934 3803 
L 1031 3803 
z
" transform="scale(0.015625)"/>
        <path id="TimesNewRomanPSMT-64" d="M 2222 322 
Q 2013 103 1813 7 
Q 1613 -88 1381 -88 
Q 913 -88 563 304 
Q 213 697 213 1313 
Q 213 1928 600 2439 
Q 988 2950 1597 2950 
Q 1975 2950 2222 2709 
L 2222 3238 
Q 2222 3728 2198 3840 
Q 2175 3953 2125 3993 
Q 2075 4034 2000 4034 
Q 1919 4034 1784 3984 
L 1744 4094 
L 2597 4444 
L 2738 4444 
L 2738 1134 
Q 2738 631 2761 520 
Q 2784 409 2836 365 
Q 2888 322 2956 322 
Q 3041 322 3181 375 
L 3216 266 
L 2366 -88 
L 2222 -88 
L 2222 322 
z
M 2222 541 
L 2222 2016 
Q 2203 2228 2109 2403 
Q 2016 2578 1861 2667 
Q 1706 2756 1559 2756 
Q 1284 2756 1069 2509 
Q 784 2184 784 1559 
Q 784 928 1059 592 
Q 1334 256 1672 256 
Q 1956 256 2222 541 
z
" transform="scale(0.015625)"/>
       </defs>
       <use xlink:href="#TimesNewRomanPSMT-55"/>
       <use xlink:href="#TimesNewRomanPSMT-6e" transform="translate(72.216797 0)"/>
       <use xlink:href="#TimesNewRomanPSMT-77" transform="translate(122.216797 0)"/>
       <use xlink:href="#TimesNewRomanPSMT-65" transform="translate(194.433594 0)"/>
       <use xlink:href="#TimesNewRomanPSMT-69" transform="translate(238.818359 0)"/>
       <use xlink:href="#TimesNewRomanPSMT-67" transform="translate(266.601562 0)"/>
       <use xlink:href="#TimesNewRomanPSMT-68" transform="translate(316.601562 0)"/>
       <use xlink:href="#TimesNewRomanPSMT-74" transform="translate(366.601562 0)"/>
       <use xlink:href="#TimesNewRomanPSMT-65" transform="translate(394.384766 0)"/>
       <use xlink:href="#TimesNewRomanPSMT-64" transform="translate(438.769531 0)"/>
      </g>
     </g>
    </g>
    <g id="xtick_2">
     <g id="line2d_2">
      <g>
       <use xlink:href="#me72c3d85b1" x="214.482045" y="288.57328" style="stroke: #000000; stroke-width: 0.8"/>
      </g>
     </g>
     <g id="text_2">
      <!-- Weighted -->
      <g transform="translate(184.023295 306.18328) scale(0.16 -0.16)">
       <defs>
        <path id="TimesNewRomanPSMT-57" d="M 5991 4238 
L 5991 4122 
Q 5825 4122 5722 4062 
Q 5619 4003 5525 3841 
Q 5463 3731 5328 3319 
L 4147 -97 
L 4022 -97 
L 3056 2613 
L 2097 -97 
L 1984 -97 
L 725 3422 
Q 584 3816 547 3888 
Q 484 4006 376 4064 
Q 269 4122 84 4122 
L 84 4238 
L 1653 4238 
L 1653 4122 
L 1578 4122 
Q 1413 4122 1325 4047 
Q 1238 3972 1238 3866 
Q 1238 3756 1375 3363 
L 2209 984 
L 2913 3006 
L 2788 3363 
L 2688 3647 
Q 2622 3803 2541 3922 
Q 2500 3981 2441 4022 
Q 2363 4078 2284 4103 
Q 2225 4122 2097 4122 
L 2097 4238 
L 3747 4238 
L 3747 4122 
L 3634 4122 
Q 3459 4122 3378 4047 
Q 3297 3972 3297 3844 
Q 3297 3684 3438 3288 
L 4250 984 
L 5056 3319 
Q 5194 3706 5194 3856 
Q 5194 3928 5148 3990 
Q 5103 4053 5034 4078 
Q 4916 4122 4725 4122 
L 4725 4238 
L 5991 4238 
z
" transform="scale(0.015625)"/>
       </defs>
       <use xlink:href="#TimesNewRomanPSMT-57"/>
       <use xlink:href="#TimesNewRomanPSMT-65" transform="translate(86.384766 0)"/>
       <use xlink:href="#TimesNewRomanPSMT-69" transform="translate(130.769531 0)"/>
       <use xlink:href="#TimesNewRomanPSMT-67" transform="translate(158.552734 0)"/>
       <use xlink:href="#TimesNewRomanPSMT-68" transform="translate(208.552734 0)"/>
       <use xlink:href="#TimesNewRomanPSMT-74" transform="translate(258.552734 0)"/>
       <use xlink:href="#TimesNewRomanPSMT-65" transform="translate(286.335938 0)"/>
       <use xlink:href="#TimesNewRomanPSMT-64" transform="translate(330.720703 0)"/>
      </g>
     </g>
    </g>
   </g>
   <g id="matplotlib.axis_2">
    <g id="ytick_1">
     <g id="line2d_3">
      <defs>
       <path id="m89a1fb9e62" d="M 0 0 
L -3.5 0 
" style="stroke: #000000; stroke-width: 0.8"/>
      </defs>
      <g>
       <use xlink:href="#m89a1fb9e62" x="56.6625" y="282.804917" style="stroke: #000000; stroke-width: 0.8"/>
      </g>
     </g>
     <g id="text_3">
      <!-- 0.60 -->
      <g transform="translate(22.1625 288.359917) scale(0.16 -0.16)">
       <defs>
        <path id="TimesNewRomanPSMT-30" d="M 231 2094 
Q 231 2819 450 3342 
Q 669 3866 1031 4122 
Q 1313 4325 1613 4325 
Q 2100 4325 2488 3828 
Q 2972 3213 2972 2159 
Q 2972 1422 2759 906 
Q 2547 391 2217 158 
Q 1888 -75 1581 -75 
Q 975 -75 572 641 
Q 231 1244 231 2094 
z
M 844 2016 
Q 844 1141 1059 588 
Q 1238 122 1591 122 
Q 1759 122 1940 273 
Q 2122 425 2216 781 
Q 2359 1319 2359 2297 
Q 2359 3022 2209 3506 
Q 2097 3866 1919 4016 
Q 1791 4119 1609 4119 
Q 1397 4119 1231 3928 
Q 1006 3669 925 3112 
Q 844 2556 844 2016 
z
" transform="scale(0.015625)"/>
        <path id="TimesNewRomanPSMT-2e" d="M 800 606 
Q 947 606 1047 504 
Q 1147 403 1147 259 
Q 1147 116 1045 14 
Q 944 -88 800 -88 
Q 656 -88 554 14 
Q 453 116 453 259 
Q 453 406 554 506 
Q 656 606 800 606 
z
" transform="scale(0.015625)"/>
        <path id="TimesNewRomanPSMT-36" d="M 2869 4325 
L 2869 4209 
Q 2456 4169 2195 4045 
Q 1934 3922 1679 3669 
Q 1425 3416 1258 3105 
Q 1091 2794 978 2366 
Q 1428 2675 1881 2675 
Q 2316 2675 2634 2325 
Q 2953 1975 2953 1425 
Q 2953 894 2631 456 
Q 2244 -75 1606 -75 
Q 1172 -75 869 213 
Q 275 772 275 1663 
Q 275 2231 503 2743 
Q 731 3256 1154 3653 
Q 1578 4050 1965 4187 
Q 2353 4325 2688 4325 
L 2869 4325 
z
M 925 2138 
Q 869 1716 869 1456 
Q 869 1156 980 804 
Q 1091 453 1309 247 
Q 1469 100 1697 100 
Q 1969 100 2183 356 
Q 2397 613 2397 1088 
Q 2397 1622 2184 2012 
Q 1972 2403 1581 2403 
Q 1463 2403 1327 2353 
Q 1191 2303 925 2138 
z
" transform="scale(0.015625)"/>
       </defs>
       <use xlink:href="#TimesNewRomanPSMT-30"/>
       <use xlink:href="#TimesNewRomanPSMT-2e" transform="translate(50 0)"/>
       <use xlink:href="#TimesNewRomanPSMT-36" transform="translate(75 0)"/>
       <use xlink:href="#TimesNewRomanPSMT-30" transform="translate(125 0)"/>
      </g>
     </g>
    </g>
    <g id="ytick_2">
     <g id="line2d_4">
      <g>
       <use xlink:href="#m89a1fb9e62" x="56.6625" y="253.963102" style="stroke: #000000; stroke-width: 0.8"/>
      </g>
     </g>
     <g id="text_4">
      <!-- 0.65 -->
      <g transform="translate(22.1625 259.518102) scale(0.16 -0.16)">
       <defs>
        <path id="TimesNewRomanPSMT-35" d="M 2778 4238 
L 2534 3706 
L 1259 3706 
L 981 3138 
Q 1809 3016 2294 2522 
Q 2709 2097 2709 1522 
Q 2709 1188 2573 903 
Q 2438 619 2231 419 
Q 2025 219 1772 97 
Q 1413 -75 1034 -75 
Q 653 -75 479 54 
Q 306 184 306 341 
Q 306 428 378 495 
Q 450 563 559 563 
Q 641 563 702 538 
Q 763 513 909 409 
Q 1144 247 1384 247 
Q 1750 247 2026 523 
Q 2303 800 2303 1197 
Q 2303 1581 2056 1914 
Q 1809 2247 1375 2428 
Q 1034 2569 447 2591 
L 1259 4238 
L 2778 4238 
z
" transform="scale(0.015625)"/>
       </defs>
       <use xlink:href="#TimesNewRomanPSMT-30"/>
       <use xlink:href="#TimesNewRomanPSMT-2e" transform="translate(50 0)"/>
       <use xlink:href="#TimesNewRomanPSMT-36" transform="translate(75 0)"/>
       <use xlink:href="#TimesNewRomanPSMT-35" transform="translate(125 0)"/>
      </g>
     </g>
    </g>
    <g id="ytick_3">
     <g id="line2d_5">
      <g>
       <use xlink:href="#m89a1fb9e62" x="56.6625" y="225.121288" style="stroke: #000000; stroke-width: 0.8"/>
      </g>
     </g>
     <g id="text_5">
      <!-- 0.70 -->
      <g transform="translate(22.1625 230.676288) scale(0.16 -0.16)">
       <defs>
        <path id="TimesNewRomanPSMT-37" d="M 644 4238 
L 2916 4238 
L 2916 4119 
L 1503 -88 
L 1153 -88 
L 2419 3728 
L 1253 3728 
Q 900 3728 750 3644 
Q 488 3500 328 3200 
L 238 3234 
L 644 4238 
z
" transform="scale(0.015625)"/>
       </defs>
       <use xlink:href="#TimesNewRomanPSMT-30"/>
       <use xlink:href="#TimesNewRomanPSMT-2e" transform="translate(50 0)"/>
       <use xlink:href="#TimesNewRomanPSMT-37" transform="translate(75 0)"/>
       <use xlink:href="#TimesNewRomanPSMT-30" transform="translate(125 0)"/>
      </g>
     </g>
    </g>
    <g id="ytick_4">
     <g id="line2d_6">
      <g>
       <use xlink:href="#m89a1fb9e62" x="56.6625" y="196.279473" style="stroke: #000000; stroke-width: 0.8"/>
      </g>
     </g>
     <g id="text_6">
      <!-- 0.75 -->
      <g transform="translate(22.1625 201.834473) scale(0.16 -0.16)">
       <use xlink:href="#TimesNewRomanPSMT-30"/>
       <use xlink:href="#TimesNewRomanPSMT-2e" transform="translate(50 0)"/>
       <use xlink:href="#TimesNewRomanPSMT-37" transform="translate(75 0)"/>
       <use xlink:href="#TimesNewRomanPSMT-35" transform="translate(125 0)"/>
      </g>
     </g>
    </g>
    <g id="ytick_5">
     <g id="line2d_7">
      <g>
       <use xlink:href="#m89a1fb9e62" x="56.6625" y="167.437659" style="stroke: #000000; stroke-width: 0.8"/>
      </g>
     </g>
     <g id="text_7">
      <!-- 0.80 -->
      <g transform="translate(22.1625 172.992659) scale(0.16 -0.16)">
       <defs>
        <path id="TimesNewRomanPSMT-38" d="M 1228 2134 
Q 725 2547 579 2797 
Q 434 3047 434 3316 
Q 434 3728 753 4026 
Q 1072 4325 1600 4325 
Q 2113 4325 2425 4047 
Q 2738 3769 2738 3413 
Q 2738 3175 2569 2928 
Q 2400 2681 1866 2347 
Q 2416 1922 2594 1678 
Q 2831 1359 2831 1006 
Q 2831 559 2490 242 
Q 2150 -75 1597 -75 
Q 994 -75 656 303 
Q 388 606 388 966 
Q 388 1247 577 1523 
Q 766 1800 1228 2134 
z
M 1719 2469 
Q 2094 2806 2194 3001 
Q 2294 3197 2294 3444 
Q 2294 3772 2109 3958 
Q 1925 4144 1606 4144 
Q 1288 4144 1088 3959 
Q 888 3775 888 3528 
Q 888 3366 970 3203 
Q 1053 3041 1206 2894 
L 1719 2469 
z
M 1375 2016 
Q 1116 1797 991 1539 
Q 866 1281 866 981 
Q 866 578 1086 336 
Q 1306 94 1647 94 
Q 1984 94 2187 284 
Q 2391 475 2391 747 
Q 2391 972 2272 1150 
Q 2050 1481 1375 2016 
z
" transform="scale(0.015625)"/>
       </defs>
       <use xlink:href="#TimesNewRomanPSMT-30"/>
       <use xlink:href="#TimesNewRomanPSMT-2e" transform="translate(50 0)"/>
       <use xlink:href="#TimesNewRomanPSMT-38" transform="translate(75 0)"/>
       <use xlink:href="#TimesNewRomanPSMT-30" transform="translate(125 0)"/>
      </g>
     </g>
    </g>
    <g id="ytick_6">
     <g id="line2d_8">
      <g>
       <use xlink:href="#m89a1fb9e62" x="56.6625" y="138.595844" style="stroke: #000000; stroke-width: 0.8"/>
      </g>
     </g>
     <g id="text_8">
      <!-- 0.85 -->
      <g transform="translate(22.1625 144.150844) scale(0.16 -0.16)">
       <use xlink:href="#TimesNewRomanPSMT-30"/>
       <use xlink:href="#TimesNewRomanPSMT-2e" transform="translate(50 0)"/>
       <use xlink:href="#TimesNewRomanPSMT-38" transform="translate(75 0)"/>
       <use xlink:href="#TimesNewRomanPSMT-35" transform="translate(125 0)"/>
      </g>
     </g>
    </g>
    <g id="ytick_7">
     <g id="line2d_9">
      <g>
       <use xlink:href="#m89a1fb9e62" x="56.6625" y="109.754029" style="stroke: #000000; stroke-width: 0.8"/>
      </g>
     </g>
     <g id="text_9">
      <!-- 0.90 -->
      <g transform="translate(22.1625 115.309029) scale(0.16 -0.16)">
       <defs>
        <path id="TimesNewRomanPSMT-39" d="M 338 -88 
L 338 28 
Q 744 34 1094 217 
Q 1444 400 1770 856 
Q 2097 1313 2225 1859 
Q 1734 1544 1338 1544 
Q 891 1544 572 1889 
Q 253 2234 253 2806 
Q 253 3363 572 3797 
Q 956 4325 1575 4325 
Q 2097 4325 2469 3894 
Q 2925 3359 2925 2575 
Q 2925 1869 2578 1258 
Q 2231 647 1613 244 
Q 1109 -88 516 -88 
L 338 -88 
z
M 2275 2091 
Q 2331 2497 2331 2741 
Q 2331 3044 2228 3395 
Q 2125 3747 1936 3934 
Q 1747 4122 1506 4122 
Q 1228 4122 1018 3872 
Q 809 3622 809 3128 
Q 809 2469 1088 2097 
Q 1291 1828 1588 1828 
Q 1731 1828 1928 1897 
Q 2125 1966 2275 2091 
z
" transform="scale(0.015625)"/>
       </defs>
       <use xlink:href="#TimesNewRomanPSMT-30"/>
       <use xlink:href="#TimesNewRomanPSMT-2e" transform="translate(50 0)"/>
       <use xlink:href="#TimesNewRomanPSMT-39" transform="translate(75 0)"/>
       <use xlink:href="#TimesNewRomanPSMT-30" transform="translate(125 0)"/>
      </g>
     </g>
    </g>
    <g id="ytick_8">
     <g id="line2d_10">
      <g>
       <use xlink:href="#m89a1fb9e62" x="56.6625" y="80.912215" style="stroke: #000000; stroke-width: 0.8"/>
      </g>
     </g>
     <g id="text_10">
      <!-- 0.95 -->
      <g transform="translate(22.1625 86.467215) scale(0.16 -0.16)">
       <use xlink:href="#TimesNewRomanPSMT-30"/>
       <use xlink:href="#TimesNewRomanPSMT-2e" transform="translate(50 0)"/>
       <use xlink:href="#TimesNewRomanPSMT-39" transform="translate(75 0)"/>
       <use xlink:href="#TimesNewRomanPSMT-35" transform="translate(125 0)"/>
      </g>
     </g>
    </g>
    <g id="ytick_9">
     <g id="line2d_11">
      <g>
       <use xlink:href="#m89a1fb9e62" x="56.6625" y="52.0704" style="stroke: #000000; stroke-width: 0.8"/>
      </g>
     </g>
     <g id="text_11">
      <!-- 1.00 -->
      <g transform="translate(22.1625 57.6254) scale(0.16 -0.16)">
       <defs>
        <path id="TimesNewRomanPSMT-31" d="M 750 3822 
L 1781 4325 
L 1884 4325 
L 1884 747 
Q 1884 391 1914 303 
Q 1944 216 2037 169 
Q 2131 122 2419 116 
L 2419 0 
L 825 0 
L 825 116 
Q 1125 122 1212 167 
Q 1300 213 1334 289 
Q 1369 366 1369 747 
L 1369 3034 
Q 1369 3497 1338 3628 
Q 1316 3728 1258 3775 
Q 1200 3822 1119 3822 
Q 1003 3822 797 3725 
L 750 3822 
z
" transform="scale(0.015625)"/>
       </defs>
       <use xlink:href="#TimesNewRomanPSMT-31"/>
       <use xlink:href="#TimesNewRomanPSMT-2e" transform="translate(50 0)"/>
       <use xlink:href="#TimesNewRomanPSMT-30" transform="translate(75 0)"/>
       <use xlink:href="#TimesNewRomanPSMT-30" transform="translate(125 0)"/>
      </g>
     </g>
    </g>
    <g id="text_12">
     <!-- Modularity -->
     <g transform="translate(14.71 206.31809) rotate(-90) scale(0.16 -0.16)">
      <defs>
       <path id="TimesNewRomanPSMT-4d" d="M 2619 0 
L 981 3566 
L 981 734 
Q 981 344 1066 247 
Q 1181 116 1431 116 
L 1581 116 
L 1581 0 
L 106 0 
L 106 116 
L 256 116 
Q 525 116 638 278 
Q 706 378 706 734 
L 706 3503 
Q 706 3784 644 3909 
Q 600 4000 483 4061 
Q 366 4122 106 4122 
L 106 4238 
L 1306 4238 
L 2844 922 
L 4356 4238 
L 5556 4238 
L 5556 4122 
L 5409 4122 
Q 5138 4122 5025 3959 
Q 4956 3859 4956 3503 
L 4956 734 
Q 4956 344 5044 247 
Q 5159 116 5409 116 
L 5556 116 
L 5556 0 
L 3756 0 
L 3756 116 
L 3906 116 
Q 4178 116 4288 278 
Q 4356 378 4356 734 
L 4356 3566 
L 2722 0 
L 2619 0 
z
" transform="scale(0.015625)"/>
       <path id="TimesNewRomanPSMT-6f" d="M 1600 2947 
Q 2250 2947 2644 2453 
Q 2978 2031 2978 1484 
Q 2978 1100 2793 706 
Q 2609 313 2286 112 
Q 1963 -88 1566 -88 
Q 919 -88 538 428 
Q 216 863 216 1403 
Q 216 1797 411 2186 
Q 606 2575 925 2761 
Q 1244 2947 1600 2947 
z
M 1503 2744 
Q 1338 2744 1170 2645 
Q 1003 2547 900 2300 
Q 797 2053 797 1666 
Q 797 1041 1045 587 
Q 1294 134 1700 134 
Q 2003 134 2200 384 
Q 2397 634 2397 1244 
Q 2397 2006 2069 2444 
Q 1847 2744 1503 2744 
z
" transform="scale(0.015625)"/>
       <path id="TimesNewRomanPSMT-75" d="M 2709 2863 
L 2709 1128 
Q 2709 631 2732 520 
Q 2756 409 2807 365 
Q 2859 322 2928 322 
Q 3025 322 3147 375 
L 3191 266 
L 2334 -88 
L 2194 -88 
L 2194 519 
Q 1825 119 1631 15 
Q 1438 -88 1222 -88 
Q 981 -88 804 51 
Q 628 191 559 409 
Q 491 628 491 1028 
L 491 2306 
Q 491 2509 447 2587 
Q 403 2666 317 2708 
Q 231 2750 6 2747 
L 6 2863 
L 1009 2863 
L 1009 947 
Q 1009 547 1148 422 
Q 1288 297 1484 297 
Q 1619 297 1789 381 
Q 1959 466 2194 703 
L 2194 2325 
Q 2194 2569 2105 2655 
Q 2016 2741 1734 2747 
L 1734 2863 
L 2709 2863 
z
" transform="scale(0.015625)"/>
       <path id="TimesNewRomanPSMT-6c" d="M 1184 4444 
L 1184 647 
Q 1184 378 1223 290 
Q 1263 203 1344 158 
Q 1425 113 1647 113 
L 1647 0 
L 244 0 
L 244 113 
Q 441 113 512 153 
Q 584 194 625 287 
Q 666 381 666 647 
L 666 3247 
Q 666 3731 644 3842 
Q 622 3953 573 3993 
Q 525 4034 450 4034 
Q 369 4034 244 3984 
L 191 4094 
L 1044 4444 
L 1184 4444 
z
" transform="scale(0.015625)"/>
       <path id="TimesNewRomanPSMT-61" d="M 1822 413 
Q 1381 72 1269 19 
Q 1100 -59 909 -59 
Q 613 -59 420 144 
Q 228 347 228 678 
Q 228 888 322 1041 
Q 450 1253 767 1440 
Q 1084 1628 1822 1897 
L 1822 2009 
Q 1822 2438 1686 2597 
Q 1550 2756 1291 2756 
Q 1094 2756 978 2650 
Q 859 2544 859 2406 
L 866 2225 
Q 866 2081 792 2003 
Q 719 1925 600 1925 
Q 484 1925 411 2006 
Q 338 2088 338 2228 
Q 338 2497 613 2722 
Q 888 2947 1384 2947 
Q 1766 2947 2009 2819 
Q 2194 2722 2281 2516 
Q 2338 2381 2338 1966 
L 2338 994 
Q 2338 584 2353 492 
Q 2369 400 2405 369 
Q 2441 338 2488 338 
Q 2538 338 2575 359 
Q 2641 400 2828 588 
L 2828 413 
Q 2478 -56 2159 -56 
Q 2006 -56 1915 50 
Q 1825 156 1822 413 
z
M 1822 616 
L 1822 1706 
Q 1350 1519 1213 1441 
Q 966 1303 859 1153 
Q 753 1003 753 825 
Q 753 600 887 451 
Q 1022 303 1197 303 
Q 1434 303 1822 616 
z
" transform="scale(0.015625)"/>
       <path id="TimesNewRomanPSMT-72" d="M 1038 2947 
L 1038 2303 
Q 1397 2947 1775 2947 
Q 1947 2947 2059 2842 
Q 2172 2738 2172 2600 
Q 2172 2478 2090 2393 
Q 2009 2309 1897 2309 
Q 1788 2309 1652 2417 
Q 1516 2525 1450 2525 
Q 1394 2525 1328 2463 
Q 1188 2334 1038 2041 
L 1038 669 
Q 1038 431 1097 309 
Q 1138 225 1241 169 
Q 1344 113 1538 113 
L 1538 0 
L 72 0 
L 72 113 
Q 291 113 397 181 
Q 475 231 506 341 
Q 522 394 522 644 
L 522 1753 
Q 522 2253 501 2348 
Q 481 2444 426 2487 
Q 372 2531 291 2531 
Q 194 2531 72 2484 
L 41 2597 
L 906 2947 
L 1038 2947 
z
" transform="scale(0.015625)"/>
       <path id="TimesNewRomanPSMT-79" d="M 38 2863 
L 1372 2863 
L 1372 2747 
L 1306 2747 
Q 1166 2747 1095 2686 
Q 1025 2625 1025 2534 
Q 1025 2413 1128 2197 
L 1825 753 
L 2466 2334 
Q 2519 2463 2519 2588 
Q 2519 2644 2497 2672 
Q 2472 2706 2419 2726 
Q 2366 2747 2231 2747 
L 2231 2863 
L 3163 2863 
L 3163 2747 
Q 3047 2734 2984 2696 
Q 2922 2659 2847 2556 
Q 2819 2513 2741 2316 
L 1575 -541 
Q 1406 -956 1132 -1168 
Q 859 -1381 606 -1381 
Q 422 -1381 303 -1275 
Q 184 -1169 184 -1031 
Q 184 -900 270 -820 
Q 356 -741 506 -741 
Q 609 -741 788 -809 
Q 913 -856 944 -856 
Q 1038 -856 1148 -759 
Q 1259 -663 1372 -384 
L 1575 113 
L 547 2272 
Q 500 2369 397 2513 
Q 319 2622 269 2659 
Q 197 2709 38 2747 
L 38 2863 
z
" transform="scale(0.015625)"/>
      </defs>
      <use xlink:href="#TimesNewRomanPSMT-4d"/>
      <use xlink:href="#TimesNewRomanPSMT-6f" transform="translate(88.916016 0)"/>
      <use xlink:href="#TimesNewRomanPSMT-64" transform="translate(138.916016 0)"/>
      <use xlink:href="#TimesNewRomanPSMT-75" transform="translate(188.916016 0)"/>
      <use xlink:href="#TimesNewRomanPSMT-6c" transform="translate(238.916016 0)"/>
      <use xlink:href="#TimesNewRomanPSMT-61" transform="translate(266.699219 0)"/>
      <use xlink:href="#TimesNewRomanPSMT-72" transform="translate(311.083984 0)"/>
      <use xlink:href="#TimesNewRomanPSMT-69" transform="translate(344.384766 0)"/>
      <use xlink:href="#TimesNewRomanPSMT-74" transform="translate(372.167969 0)"/>
      <use xlink:href="#TimesNewRomanPSMT-79" transform="translate(399.951172 0)"/>
     </g>
    </g>
   </g>
   <g id="line2d_12">
    <path d="M 95.372955 69.808116 
L 95.372955 66.260573 
L 214.482045 66.260573 
L 214.482045 69.808116 
" clip-path="url(#p3b5a433957)" style="fill: none; stroke: #000000; stroke-linecap: square"/>
   </g>
   <g id="patch_3">
    <path d="M 56.6625 288.57328 
L 56.6625 52.0704 
" style="fill: none; stroke: #000000; stroke-width: 0.8; stroke-linejoin: miter; stroke-linecap: square"/>
   </g>
   <g id="patch_4">
    <path d="M 253.1925 288.57328 
L 253.1925 52.0704 
" style="fill: none; stroke: #000000; stroke-width: 0.8; stroke-linejoin: miter; stroke-linecap: square"/>
   </g>
   <g id="patch_5">
    <path d="M 56.6625 288.57328 
L 253.1925 288.57328 
" style="fill: none; stroke: #000000; stroke-width: 0.8; stroke-linejoin: miter; stroke-linecap: square"/>
   </g>
   <g id="patch_6">
    <path d="M 56.6625 52.0704 
L 253.1925 52.0704 
" style="fill: none; stroke: #000000; stroke-width: 0.8; stroke-linejoin: miter; stroke-linecap: square"/>
   </g>
   <g id="text_13">
    <!-- (A) -->
    <g transform="translate(62.5584 70.275486) scale(0.16 -0.16)">
     <defs>
      <path id="TimesNewRomanPSMT-28" d="M 1988 -1253 
L 1988 -1369 
Q 1516 -1131 1200 -813 
Q 750 -359 506 256 
Q 263 872 263 1534 
Q 263 2503 741 3301 
Q 1219 4100 1988 4444 
L 1988 4313 
Q 1603 4100 1356 3731 
Q 1109 3363 987 2797 
Q 866 2231 866 1616 
Q 866 947 969 400 
Q 1050 -31 1165 -292 
Q 1281 -553 1476 -793 
Q 1672 -1034 1988 -1253 
z
" transform="scale(0.015625)"/>
      <path id="TimesNewRomanPSMT-41" d="M 2928 1419 
L 1288 1419 
L 1000 750 
Q 894 503 894 381 
Q 894 284 986 211 
Q 1078 138 1384 116 
L 1384 0 
L 50 0 
L 50 116 
Q 316 163 394 238 
Q 553 388 747 847 
L 2238 4334 
L 2347 4334 
L 3822 809 
Q 4000 384 4145 257 
Q 4291 131 4550 116 
L 4550 0 
L 2878 0 
L 2878 116 
Q 3131 128 3220 200 
Q 3309 272 3309 375 
Q 3309 513 3184 809 
L 2928 1419 
z
M 2841 1650 
L 2122 3363 
L 1384 1650 
L 2841 1650 
z
" transform="scale(0.015625)"/>
      <path id="TimesNewRomanPSMT-29" d="M 144 4313 
L 144 4444 
Q 619 4209 934 3891 
Q 1381 3434 1625 2820 
Q 1869 2206 1869 1541 
Q 1869 572 1392 -226 
Q 916 -1025 144 -1369 
L 144 -1253 
Q 528 -1038 776 -670 
Q 1025 -303 1145 264 
Q 1266 831 1266 1447 
Q 1266 2113 1163 2663 
Q 1084 3094 967 3353 
Q 850 3613 656 3853 
Q 463 4094 144 4313 
z
" transform="scale(0.015625)"/>
     </defs>
     <use xlink:href="#TimesNewRomanPSMT-28"/>
     <use xlink:href="#TimesNewRomanPSMT-41" transform="translate(33.300781 0)"/>
     <use xlink:href="#TimesNewRomanPSMT-29" transform="translate(105.517578 0)"/>
    </g>
   </g>
   <g id="text_14">
    <!-- *** -->
    <g transform="translate(142.9275 67.56813) scale(0.16 -0.16)">
     <defs>
      <path id="TimesNewRomanPSMT-2a" d="M 1544 3263 
Q 1531 3478 1456 3691 
Q 1350 3997 1350 4113 
Q 1350 4275 1426 4359 
Q 1503 4444 1616 4444 
Q 1713 4444 1784 4359 
Q 1856 4275 1856 4119 
Q 1856 3978 1773 3726 
Q 1691 3475 1672 3263 
Q 1844 3372 1981 3528 
Q 2194 3775 2297 3834 
Q 2400 3894 2506 3894 
Q 2609 3894 2679 3823 
Q 2750 3753 2750 3656 
Q 2750 3541 2647 3450 
Q 2544 3359 2131 3269 
Q 1891 3216 1731 3147 
Q 1894 3063 2128 3019 
Q 2506 2950 2623 2847 
Q 2741 2744 2741 2622 
Q 2741 2528 2670 2459 
Q 2600 2391 2506 2391 
Q 2413 2391 2298 2456 
Q 2184 2522 1991 2750 
Q 1863 2903 1672 3038 
Q 1678 2859 1744 2650 
Q 1856 2281 1856 2147 
Q 1856 2022 1781 1936 
Q 1706 1850 1622 1850 
Q 1506 1850 1413 1941 
Q 1347 2006 1347 2150 
Q 1347 2300 1419 2511 
Q 1491 2722 1509 2801 
Q 1528 2881 1544 3038 
Q 1359 2916 1222 2766 
Q 994 2509 878 2441 
Q 797 2391 709 2391 
Q 603 2391 528 2462 
Q 453 2534 453 2622 
Q 453 2700 517 2786 
Q 581 2872 709 2928 
Q 794 2966 1094 3028 
Q 1288 3069 1472 3147 
Q 1303 3231 1069 3278 
Q 684 3359 594 3425 
Q 453 3528 453 3675 
Q 453 3759 523 3829 
Q 594 3900 688 3900 
Q 791 3900 906 3834 
Q 1022 3769 1194 3570 
Q 1366 3372 1544 3263 
z
" transform="scale(0.015625)"/>
     </defs>
     <use xlink:href="#TimesNewRomanPSMT-2a"/>
     <use xlink:href="#TimesNewRomanPSMT-2a" transform="translate(50 0)"/>
     <use xlink:href="#TimesNewRomanPSMT-2a" transform="translate(100 0)"/>
    </g>
   </g>
   <g id="text_15">
    <!-- p = 2.39e-10 -->
    <g transform="translate(114.20125 80.941766) scale(0.16 -0.16)">
     <defs>
      <path id="TimesNewRomanPSMT-70" d="M -6 2578 
L 875 2934 
L 994 2934 
L 994 2266 
Q 1216 2644 1439 2795 
Q 1663 2947 1909 2947 
Q 2341 2947 2628 2609 
Q 2981 2197 2981 1534 
Q 2981 794 2556 309 
Q 2206 -88 1675 -88 
Q 1444 -88 1275 -22 
Q 1150 25 994 166 
L 994 -706 
Q 994 -1000 1030 -1079 
Q 1066 -1159 1155 -1206 
Q 1244 -1253 1478 -1253 
L 1478 -1369 
L -22 -1369 
L -22 -1253 
L 56 -1253 
Q 228 -1256 350 -1188 
Q 409 -1153 442 -1076 
Q 475 -1000 475 -688 
L 475 2019 
Q 475 2297 450 2372 
Q 425 2447 370 2484 
Q 316 2522 222 2522 
Q 147 2522 31 2478 
L -6 2578 
z
M 994 2081 
L 994 1013 
Q 994 666 1022 556 
Q 1066 375 1236 237 
Q 1406 100 1666 100 
Q 1978 100 2172 344 
Q 2425 663 2425 1241 
Q 2425 1897 2138 2250 
Q 1938 2494 1663 2494 
Q 1513 2494 1366 2419 
Q 1253 2363 994 2081 
z
" transform="scale(0.015625)"/>
      <path id="TimesNewRomanPSMT-20" transform="scale(0.015625)"/>
      <path id="TimesNewRomanPSMT-3d" d="M 116 2759 
L 3488 2759 
L 3488 2503 
L 116 2503 
L 116 2759 
z
M 116 1741 
L 3488 1741 
L 3488 1484 
L 116 1484 
L 116 1741 
z
" transform="scale(0.015625)"/>
      <path id="TimesNewRomanPSMT-32" d="M 2934 816 
L 2638 0 
L 138 0 
L 138 116 
Q 1241 1122 1691 1759 
Q 2141 2397 2141 2925 
Q 2141 3328 1894 3587 
Q 1647 3847 1303 3847 
Q 991 3847 742 3664 
Q 494 3481 375 3128 
L 259 3128 
Q 338 3706 661 4015 
Q 984 4325 1469 4325 
Q 1984 4325 2329 3994 
Q 2675 3663 2675 3213 
Q 2675 2891 2525 2569 
Q 2294 2063 1775 1497 
Q 997 647 803 472 
L 1909 472 
Q 2247 472 2383 497 
Q 2519 522 2628 598 
Q 2738 675 2819 816 
L 2934 816 
z
" transform="scale(0.015625)"/>
      <path id="TimesNewRomanPSMT-33" d="M 325 3431 
Q 506 3859 782 4092 
Q 1059 4325 1472 4325 
Q 1981 4325 2253 3994 
Q 2459 3747 2459 3466 
Q 2459 3003 1878 2509 
Q 2269 2356 2469 2072 
Q 2669 1788 2669 1403 
Q 2669 853 2319 450 
Q 1863 -75 997 -75 
Q 569 -75 414 31 
Q 259 138 259 259 
Q 259 350 332 419 
Q 406 488 509 488 
Q 588 488 669 463 
Q 722 447 909 348 
Q 1097 250 1169 231 
Q 1284 197 1416 197 
Q 1734 197 1970 444 
Q 2206 691 2206 1028 
Q 2206 1275 2097 1509 
Q 2016 1684 1919 1775 
Q 1784 1900 1550 2001 
Q 1316 2103 1072 2103 
L 972 2103 
L 972 2197 
Q 1219 2228 1467 2375 
Q 1716 2522 1828 2728 
Q 1941 2934 1941 3181 
Q 1941 3503 1739 3701 
Q 1538 3900 1238 3900 
Q 753 3900 428 3381 
L 325 3431 
z
" transform="scale(0.015625)"/>
      <path id="TimesNewRomanPSMT-2d" d="M 259 1672 
L 1875 1672 
L 1875 1200 
L 259 1200 
L 259 1672 
z
" transform="scale(0.015625)"/>
     </defs>
     <use xlink:href="#TimesNewRomanPSMT-70"/>
     <use xlink:href="#TimesNewRomanPSMT-20" transform="translate(50 0)"/>
     <use xlink:href="#TimesNewRomanPSMT-3d" transform="translate(75 0)"/>
     <use xlink:href="#TimesNewRomanPSMT-20" transform="translate(131.396484 0)"/>
     <use xlink:href="#TimesNewRomanPSMT-32" transform="translate(156.396484 0)"/>
     <use xlink:href="#TimesNewRomanPSMT-2e" transform="translate(206.396484 0)"/>
     <use xlink:href="#TimesNewRomanPSMT-33" transform="translate(231.396484 0)"/>
     <use xlink:href="#TimesNewRomanPSMT-39" transform="translate(281.396484 0)"/>
     <use xlink:href="#TimesNewRomanPSMT-65" transform="translate(331.396484 0)"/>
     <use xlink:href="#TimesNewRomanPSMT-2d" transform="translate(375.78125 0)"/>
     <use xlink:href="#TimesNewRomanPSMT-31" transform="translate(409.082031 0)"/>
     <use xlink:href="#TimesNewRomanPSMT-30" transform="translate(459.082031 0)"/>
    </g>
   </g>
   <g id="text_16">
    <!-- Modularity -->
    <g transform="translate(118.93125 44.0704) scale(0.16 -0.16)">
     <use xlink:href="#TimesNewRomanPSMT-4d"/>
     <use xlink:href="#TimesNewRomanPSMT-6f" transform="translate(88.916016 0)"/>
     <use xlink:href="#TimesNewRomanPSMT-64" transform="translate(138.916016 0)"/>
     <use xlink:href="#TimesNewRomanPSMT-75" transform="translate(188.916016 0)"/>
     <use xlink:href="#TimesNewRomanPSMT-6c" transform="translate(238.916016 0)"/>
     <use xlink:href="#TimesNewRomanPSMT-61" transform="translate(266.699219 0)"/>
     <use xlink:href="#TimesNewRomanPSMT-72" transform="translate(311.083984 0)"/>
     <use xlink:href="#TimesNewRomanPSMT-69" transform="translate(344.384766 0)"/>
     <use xlink:href="#TimesNewRomanPSMT-74" transform="translate(372.167969 0)"/>
     <use xlink:href="#TimesNewRomanPSMT-79" transform="translate(399.951172 0)"/>
    </g>
   </g>
  </g>
  <g id="axes_2">
   <g id="patch_7">
    <path d="M 324.1125 288.57328 
L 520.6425 288.57328 
L 520.6425 52.0704 
L 324.1125 52.0704 
z
" style="fill: #ffffff"/>
   </g>
   <g id="FillBetweenPolyCollection_3">
    <defs>
     <path id="ma60e0499da" d="M 363.013164 -42.305794 
L 362.632745 -42.305794 
L 362.571367 -44.297266 
L 362.495666 -46.288737 
L 362.404073 -48.280209 
L 362.295338 -50.271681 
L 362.168646 -52.263152 
L 362.023724 -54.254624 
L 361.860907 -56.246095 
L 361.681157 -58.237567 
L 361.486036 -60.229038 
L 361.277617 -62.22051 
L 361.058356 -64.211981 
L 360.83092 -66.203453 
L 360.598005 -68.194924 
L 360.362151 -70.186396 
L 360.125572 -72.177867 
L 359.890025 -74.169339 
L 359.656721 -76.16081 
L 359.426281 -78.152282 
L 359.198737 -80.143753 
L 358.973574 -82.135225 
L 358.749801 -84.126696 
L 358.526038 -86.118168 
L 358.300604 -88.10964 
L 358.071608 -90.101111 
L 357.837012 -92.092583 
L 357.594672 -94.084054 
L 357.342343 -96.075526 
L 357.077648 -98.066997 
L 356.798011 -100.058469 
L 356.500566 -102.04994 
L 356.18205 -104.041412 
L 355.838702 -106.032883 
L 355.466185 -108.024355 
L 355.059562 -110.015826 
L 354.61333 -112.007298 
L 354.12153 -113.998769 
L 353.577945 -115.990241 
L 352.976368 -117.981712 
L 352.310937 -119.973184 
L 351.576522 -121.964655 
L 350.769151 -123.956127 
L 349.886437 -125.947598 
L 348.928016 -127.93907 
L 347.895958 -129.930542 
L 346.795127 -131.922013 
L 345.633476 -133.913485 
L 344.422233 -135.904956 
L 343.175942 -137.896428 
L 341.912325 -139.887899 
L 340.651919 -141.879371 
L 339.41749 -143.870842 
L 338.233199 -145.862314 
L 337.123574 -147.853785 
L 336.112328 -149.845257 
L 335.22112 -151.836728 
L 334.468364 -153.8282 
L 333.868178 -155.819671 
L 333.429602 -157.811143 
L 333.15614 -159.802614 
L 333.045682 -161.794086 
L 333.09081 -163.785557 
L 333.279462 -165.777029 
L 333.59588 -167.768501 
L 334.021765 -169.759972 
L 334.537531 -171.751444 
L 335.123577 -173.742915 
L 335.761475 -175.734387 
L 336.435015 -177.725858 
L 337.131041 -179.71733 
L 337.840051 -181.708801 
L 338.556523 -183.700273 
L 339.278954 -185.691744 
L 340.009615 -187.683216 
L 340.754014 -189.674687 
L 341.520108 -191.666159 
L 342.317288 -193.65763 
L 343.155222 -195.649102 
L 344.042631 -197.640573 
L 344.9861 -199.632045 
L 345.989045 -201.623516 
L 347.050939 -203.614988 
L 348.166877 -205.60646 
L 349.327544 -207.597931 
L 350.519596 -209.589403 
L 351.726422 -211.580874 
L 352.929208 -213.572346 
L 354.108193 -215.563817 
L 355.243998 -217.555289 
L 356.318875 -219.54676 
L 357.31777 -221.538232 
L 358.229112 -223.529703 
L 359.045259 -225.521175 
L 359.76261 -227.512646 
L 360.381392 -229.504118 
L 360.905188 -231.495589 
L 361.340294 -233.487061 
L 361.694963 -235.478532 
L 361.978655 -237.470004 
L 362.201325 -239.461475 
L 363.444585 -239.461475 
L 363.444585 -239.461475 
L 363.667254 -237.470004 
L 363.950946 -235.478532 
L 364.305616 -233.487061 
L 364.740721 -231.495589 
L 365.264518 -229.504118 
L 365.883299 -227.512646 
L 366.60065 -225.521175 
L 367.416797 -223.529703 
L 368.328139 -221.538232 
L 369.327034 -219.54676 
L 370.401911 -217.555289 
L 371.537716 -215.563817 
L 372.716701 -213.572346 
L 373.919487 -211.580874 
L 375.126313 -209.589403 
L 376.318365 -207.597931 
L 377.479032 -205.60646 
L 378.59497 -203.614988 
L 379.656864 -201.623516 
L 380.659809 -199.632045 
L 381.603278 -197.640573 
L 382.490687 -195.649102 
L 383.328621 -193.65763 
L 384.125801 -191.666159 
L 384.891895 -189.674687 
L 385.636294 -187.683216 
L 386.366955 -185.691744 
L 387.089386 -183.700273 
L 387.805858 -181.708801 
L 388.514868 -179.71733 
L 389.210894 -177.725858 
L 389.884434 -175.734387 
L 390.522332 -173.742915 
L 391.108378 -171.751444 
L 391.624144 -169.759972 
L 392.050029 -167.768501 
L 392.366447 -165.777029 
L 392.555099 -163.785557 
L 392.600227 -161.794086 
L 392.489769 -159.802614 
L 392.216307 -157.811143 
L 391.777732 -155.819671 
L 391.177545 -153.8282 
L 390.424789 -151.836728 
L 389.533581 -149.845257 
L 388.522335 -147.853785 
L 387.41271 -145.862314 
L 386.228419 -143.870842 
L 384.99399 -141.879371 
L 383.733584 -139.887899 
L 382.469967 -137.896428 
L 381.223676 -135.904956 
L 380.012433 -133.913485 
L 378.850782 -131.922013 
L 377.749951 -129.930542 
L 376.717893 -127.93907 
L 375.759473 -125.947598 
L 374.876758 -123.956127 
L 374.069387 -121.964655 
L 373.334973 -119.973184 
L 372.669541 -117.981712 
L 372.067964 -115.990241 
L 371.524379 -113.998769 
L 371.032579 -112.007298 
L 370.586347 -110.015826 
L 370.179724 -108.024355 
L 369.807207 -106.032883 
L 369.463859 -104.041412 
L 369.145343 -102.04994 
L 368.847898 -100.058469 
L 368.568261 -98.066997 
L 368.303566 -96.075526 
L 368.051237 -94.084054 
L 367.808897 -92.092583 
L 367.574301 -90.101111 
L 367.345306 -88.10964 
L 367.119872 -86.118168 
L 366.896108 -84.126696 
L 366.672335 -82.135225 
L 366.447172 -80.143753 
L 366.219628 -78.152282 
L 365.989188 -76.16081 
L 365.755884 -74.169339 
L 365.520337 -72.177867 
L 365.283758 -70.186396 
L 365.047904 -68.194924 
L 364.814989 -66.203453 
L 364.587554 -64.211981 
L 364.368292 -62.22051 
L 364.159873 -60.229038 
L 363.964752 -58.237567 
L 363.785002 -56.246095 
L 363.622185 -54.254624 
L 363.477263 -52.263152 
L 363.350571 -50.271681 
L 363.241836 -48.280209 
L 363.150244 -46.288737 
L 363.074542 -44.297266 
L 363.013164 -42.305794 
z
" style="stroke: #595959; stroke-width: 1.25"/>
    </defs>
    <g clip-path="url(#p4f4ef08fba)">
     <use xlink:href="#ma60e0499da" x="0" y="313.23578" style="fill: #72b6a1; stroke: #595959; stroke-width: 1.25"/>
    </g>
   </g>
   <g id="FillBetweenPolyCollection_4">
    <defs>
     <path id="mf675d8413e" d="M 482.065077 -29.173475 
L 481.799014 -29.173475 
L 481.75301 -30.056065 
L 481.696184 -30.938655 
L 481.627762 -31.821244 
L 481.547444 -32.703834 
L 481.455491 -33.586424 
L 481.352754 -34.469014 
L 481.24062 -35.351603 
L 481.120883 -36.234193 
L 480.995535 -37.116783 
L 480.866519 -37.999373 
L 480.735489 -38.881962 
L 480.603606 -39.764552 
L 480.471443 -40.647142 
L 480.339002 -41.529731 
L 480.20586 -42.412321 
L 480.071418 -43.294911 
L 479.935199 -44.177501 
L 479.797143 -45.06009 
L 479.65782 -45.94268 
L 479.518528 -46.82527 
L 479.38124 -47.70786 
L 479.248421 -48.590449 
L 479.122745 -49.473039 
L 479.006777 -50.355629 
L 478.902685 -51.238218 
L 478.812024 -52.120808 
L 478.735635 -53.003398 
L 478.673645 -53.885988 
L 478.625553 -54.768577 
L 478.590344 -55.651167 
L 478.566588 -56.533757 
L 478.552472 -57.416346 
L 478.545737 -58.298936 
L 478.543515 -59.181526 
L 478.542066 -60.064116 
L 478.536458 -60.946705 
L 478.520217 -61.829295 
L 478.484984 -62.711885 
L 478.420227 -63.594475 
L 478.31304 -64.477064 
L 478.148063 -65.359654 
L 477.90758 -66.242244 
L 477.571828 -67.124833 
L 477.119586 -68.007423 
L 476.529081 -68.890013 
L 475.779273 -69.772603 
L 474.851511 -70.655192 
L 473.731522 -71.537782 
L 472.411645 -72.420372 
L 470.8931 -73.302962 
L 469.188069 -74.185551 
L 467.321263 -75.068141 
L 465.330659 -75.950731 
L 463.267141 -76.83332 
L 461.192844 -77.71591 
L 459.17816 -78.5985 
L 457.297567 -79.48109 
L 455.624598 -80.363679 
L 454.226433 -81.246269 
L 453.158723 -82.128859 
L 452.461225 -83.011448 
L 452.154773 -83.894038 
L 452.239952 -84.776628 
L 452.697598 -85.659218 
L 453.491026 -86.541807 
L 454.569685 -87.424397 
L 455.873746 -88.306987 
L 457.339087 -89.189577 
L 458.902125 -90.072166 
L 460.50403 -90.954756 
L 462.093981 -91.837346 
L 463.631305 -92.719935 
L 465.086459 -93.602525 
L 466.440969 -94.485115 
L 467.686515 -95.367705 
L 468.8234 -96.250294 
L 469.858643 -97.132884 
L 470.803925 -98.015474 
L 471.673564 -98.898064 
L 472.48266 -99.780653 
L 473.245513 -100.663243 
L 473.97438 -101.545833 
L 474.6786 -102.428422 
L 475.36411 -103.311012 
L 476.033348 -104.193602 
L 476.685496 -105.076192 
L 477.317035 -105.958781 
L 477.922507 -106.841371 
L 478.495413 -107.723961 
L 479.029121 -108.60655 
L 479.5177 -109.48914 
L 479.956589 -110.37173 
L 480.34304 -111.25432 
L 480.676314 -112.136909 
L 480.957642 -113.019499 
L 481.189986 -113.902089 
L 481.377663 -114.784679 
L 481.525894 -115.667268 
L 481.640351 -116.549858 
L 482.22374 -116.549858 
L 482.22374 -116.549858 
L 482.338197 -115.667268 
L 482.486428 -114.784679 
L 482.674105 -113.902089 
L 482.906449 -113.019499 
L 483.187777 -112.136909 
L 483.521051 -111.25432 
L 483.907502 -110.37173 
L 484.346391 -109.48914 
L 484.83497 -108.60655 
L 485.368678 -107.723961 
L 485.941584 -106.841371 
L 486.547056 -105.958781 
L 487.178595 -105.076192 
L 487.830743 -104.193602 
L 488.499981 -103.311012 
L 489.185491 -102.428422 
L 489.889711 -101.545833 
L 490.618578 -100.663243 
L 491.381431 -99.780653 
L 492.190527 -98.898064 
L 493.060166 -98.015474 
L 494.005448 -97.132884 
L 495.040691 -96.250294 
L 496.177576 -95.367705 
L 497.423122 -94.485115 
L 498.777632 -93.602525 
L 500.232786 -92.719935 
L 501.77011 -91.837346 
L 503.360061 -90.954756 
L 504.961966 -90.072166 
L 506.525004 -89.189577 
L 507.990345 -88.306987 
L 509.294405 -87.424397 
L 510.373064 -86.541807 
L 511.166493 -85.659218 
L 511.624139 -84.776628 
L 511.709318 -83.894038 
L 511.402866 -83.011448 
L 510.705368 -82.128859 
L 509.637658 -81.246269 
L 508.239493 -80.363679 
L 506.566524 -79.48109 
L 504.685931 -78.5985 
L 502.671247 -77.71591 
L 500.596949 -76.83332 
L 498.533432 -75.950731 
L 496.542828 -75.068141 
L 494.676021 -74.185551 
L 492.970991 -73.302962 
L 491.452446 -72.420372 
L 490.132569 -71.537782 
L 489.01258 -70.655192 
L 488.084818 -69.772603 
L 487.33501 -68.890013 
L 486.744505 -68.007423 
L 486.292263 -67.124833 
L 485.956511 -66.242244 
L 485.716028 -65.359654 
L 485.551051 -64.477064 
L 485.443864 -63.594475 
L 485.379107 -62.711885 
L 485.343874 -61.829295 
L 485.327633 -60.946705 
L 485.322025 -60.064116 
L 485.320576 -59.181526 
L 485.318354 -58.298936 
L 485.311619 -57.416346 
L 485.297503 -56.533757 
L 485.273747 -55.651167 
L 485.238538 -54.768577 
L 485.190446 -53.885988 
L 485.128456 -53.003398 
L 485.052067 -52.120808 
L 484.961406 -51.238218 
L 484.857314 -50.355629 
L 484.741346 -49.473039 
L 484.61567 -48.590449 
L 484.482851 -47.70786 
L 484.345563 -46.82527 
L 484.206271 -45.94268 
L 484.066948 -45.06009 
L 483.928891 -44.177501 
L 483.792673 -43.294911 
L 483.658231 -42.412321 
L 483.525089 -41.529731 
L 483.392648 -40.647142 
L 483.260485 -39.764552 
L 483.128602 -38.881962 
L 482.997571 -37.999373 
L 482.868556 -37.116783 
L 482.743208 -36.234193 
L 482.623471 -35.351603 
L 482.511337 -34.469014 
L 482.4086 -33.586424 
L 482.316647 -32.703834 
L 482.236329 -31.821244 
L 482.167907 -30.938655 
L 482.111081 -30.056065 
L 482.065077 -29.173475 
z
" style="stroke: #595959; stroke-width: 1.25"/>
    </defs>
    <g clip-path="url(#p4f4ef08fba)">
     <use xlink:href="#mf675d8413e" x="0" y="313.23578" style="fill: #e99675; stroke: #595959; stroke-width: 1.25"/>
    </g>
   </g>
   <g id="matplotlib.axis_3">
    <g id="xtick_3">
     <g id="line2d_13">
      <g>
       <use xlink:href="#me72c3d85b1" x="362.822955" y="288.57328" style="stroke: #000000; stroke-width: 0.8"/>
      </g>
     </g>
     <g id="text_17">
      <!-- Unweighted -->
      <g transform="translate(323.720455 306.18328) scale(0.16 -0.16)">
       <use xlink:href="#TimesNewRomanPSMT-55"/>
       <use xlink:href="#TimesNewRomanPSMT-6e" transform="translate(72.216797 0)"/>
       <use xlink:href="#TimesNewRomanPSMT-77" transform="translate(122.216797 0)"/>
       <use xlink:href="#TimesNewRomanPSMT-65" transform="translate(194.433594 0)"/>
       <use xlink:href="#TimesNewRomanPSMT-69" transform="translate(238.818359 0)"/>
       <use xlink:href="#TimesNewRomanPSMT-67" transform="translate(266.601562 0)"/>
       <use xlink:href="#TimesNewRomanPSMT-68" transform="translate(316.601562 0)"/>
       <use xlink:href="#TimesNewRomanPSMT-74" transform="translate(366.601562 0)"/>
       <use xlink:href="#TimesNewRomanPSMT-65" transform="translate(394.384766 0)"/>
       <use xlink:href="#TimesNewRomanPSMT-64" transform="translate(438.769531 0)"/>
      </g>
     </g>
    </g>
    <g id="xtick_4">
     <g id="line2d_14">
      <g>
       <use xlink:href="#me72c3d85b1" x="481.932045" y="288.57328" style="stroke: #000000; stroke-width: 0.8"/>
      </g>
     </g>
     <g id="text_18">
      <!-- Weighted -->
      <g transform="translate(451.473295 306.18328) scale(0.16 -0.16)">
       <use xlink:href="#TimesNewRomanPSMT-57"/>
       <use xlink:href="#TimesNewRomanPSMT-65" transform="translate(86.384766 0)"/>
       <use xlink:href="#TimesNewRomanPSMT-69" transform="translate(130.769531 0)"/>
       <use xlink:href="#TimesNewRomanPSMT-67" transform="translate(158.552734 0)"/>
       <use xlink:href="#TimesNewRomanPSMT-68" transform="translate(208.552734 0)"/>
       <use xlink:href="#TimesNewRomanPSMT-74" transform="translate(258.552734 0)"/>
       <use xlink:href="#TimesNewRomanPSMT-65" transform="translate(286.335938 0)"/>
       <use xlink:href="#TimesNewRomanPSMT-64" transform="translate(330.720703 0)"/>
      </g>
     </g>
    </g>
   </g>
   <g id="matplotlib.axis_4">
    <g id="ytick_10">
     <g id="line2d_15">
      <g>
       <use xlink:href="#m89a1fb9e62" x="324.1125" y="252.040315" style="stroke: #000000; stroke-width: 0.8"/>
      </g>
     </g>
     <g id="text_19">
      <!-- 8 -->
      <g transform="translate(309.6125 257.595315) scale(0.16 -0.16)">
       <use xlink:href="#TimesNewRomanPSMT-38"/>
      </g>
     </g>
    </g>
    <g id="ytick_11">
     <g id="line2d_16">
      <g>
       <use xlink:href="#m89a1fb9e62" x="324.1125" y="213.584562" style="stroke: #000000; stroke-width: 0.8"/>
      </g>
     </g>
     <g id="text_20">
      <!-- 10 -->
      <g transform="translate(301.6125 219.139562) scale(0.16 -0.16)">
       <use xlink:href="#TimesNewRomanPSMT-31"/>
       <use xlink:href="#TimesNewRomanPSMT-30" transform="translate(50 0)"/>
      </g>
     </g>
    </g>
    <g id="ytick_12">
     <g id="line2d_17">
      <g>
       <use xlink:href="#m89a1fb9e62" x="324.1125" y="175.128809" style="stroke: #000000; stroke-width: 0.8"/>
      </g>
     </g>
     <g id="text_21">
      <!-- 12 -->
      <g transform="translate(301.6125 180.683809) scale(0.16 -0.16)">
       <use xlink:href="#TimesNewRomanPSMT-31"/>
       <use xlink:href="#TimesNewRomanPSMT-32" transform="translate(50 0)"/>
      </g>
     </g>
    </g>
    <g id="ytick_13">
     <g id="line2d_18">
      <g>
       <use xlink:href="#m89a1fb9e62" x="324.1125" y="136.673056" style="stroke: #000000; stroke-width: 0.8"/>
      </g>
     </g>
     <g id="text_22">
      <!-- 14 -->
      <g transform="translate(301.6125 142.228056) scale(0.16 -0.16)">
       <defs>
        <path id="TimesNewRomanPSMT-34" d="M 2978 1563 
L 2978 1119 
L 2409 1119 
L 2409 0 
L 1894 0 
L 1894 1119 
L 100 1119 
L 100 1519 
L 2066 4325 
L 2409 4325 
L 2409 1563 
L 2978 1563 
z
M 1894 1563 
L 1894 3666 
L 406 1563 
L 1894 1563 
z
" transform="scale(0.015625)"/>
       </defs>
       <use xlink:href="#TimesNewRomanPSMT-31"/>
       <use xlink:href="#TimesNewRomanPSMT-34" transform="translate(50 0)"/>
      </g>
     </g>
    </g>
    <g id="ytick_14">
     <g id="line2d_19">
      <g>
       <use xlink:href="#m89a1fb9e62" x="324.1125" y="98.217303" style="stroke: #000000; stroke-width: 0.8"/>
      </g>
     </g>
     <g id="text_23">
      <!-- 16 -->
      <g transform="translate(301.6125 103.772303) scale(0.16 -0.16)">
       <use xlink:href="#TimesNewRomanPSMT-31"/>
       <use xlink:href="#TimesNewRomanPSMT-36" transform="translate(50 0)"/>
      </g>
     </g>
    </g>
    <g id="ytick_15">
     <g id="line2d_20">
      <g>
       <use xlink:href="#m89a1fb9e62" x="324.1125" y="59.761551" style="stroke: #000000; stroke-width: 0.8"/>
      </g>
     </g>
     <g id="text_24">
      <!-- 18 -->
      <g transform="translate(301.6125 65.316551) scale(0.16 -0.16)">
       <use xlink:href="#TimesNewRomanPSMT-31"/>
       <use xlink:href="#TimesNewRomanPSMT-38" transform="translate(50 0)"/>
      </g>
     </g>
    </g>
    <g id="text_25">
     <!-- Codelength -->
     <g transform="translate(294.16 207.20559) rotate(-90) scale(0.16 -0.16)">
      <defs>
       <path id="TimesNewRomanPSMT-43" d="M 3853 4334 
L 3950 2894 
L 3853 2894 
Q 3659 3541 3300 3825 
Q 2941 4109 2438 4109 
Q 2016 4109 1675 3895 
Q 1334 3681 1139 3212 
Q 944 2744 944 2047 
Q 944 1472 1128 1050 
Q 1313 628 1683 403 
Q 2053 178 2528 178 
Q 2941 178 3256 354 
Q 3572 531 3950 1056 
L 4047 994 
Q 3728 428 3303 165 
Q 2878 -97 2294 -97 
Q 1241 -97 663 684 
Q 231 1266 231 2053 
Q 231 2688 515 3219 
Q 800 3750 1298 4042 
Q 1797 4334 2388 4334 
Q 2847 4334 3294 4109 
Q 3425 4041 3481 4041 
Q 3566 4041 3628 4100 
Q 3709 4184 3744 4334 
L 3853 4334 
z
" transform="scale(0.015625)"/>
      </defs>
      <use xlink:href="#TimesNewRomanPSMT-43"/>
      <use xlink:href="#TimesNewRomanPSMT-6f" transform="translate(66.699219 0)"/>
      <use xlink:href="#TimesNewRomanPSMT-64" transform="translate(116.699219 0)"/>
      <use xlink:href="#TimesNewRomanPSMT-65" transform="translate(166.699219 0)"/>
      <use xlink:href="#TimesNewRomanPSMT-6c" transform="translate(211.083984 0)"/>
      <use xlink:href="#TimesNewRomanPSMT-65" transform="translate(238.867188 0)"/>
      <use xlink:href="#TimesNewRomanPSMT-6e" transform="translate(283.251953 0)"/>
      <use xlink:href="#TimesNewRomanPSMT-67" transform="translate(333.251953 0)"/>
      <use xlink:href="#TimesNewRomanPSMT-74" transform="translate(383.251953 0)"/>
      <use xlink:href="#TimesNewRomanPSMT-68" transform="translate(411.035156 0)"/>
     </g>
    </g>
   </g>
   <g id="line2d_21">
    <path d="M 362.822955 69.808116 
L 362.822955 66.260573 
L 481.932045 66.260573 
L 481.932045 69.808116 
" clip-path="url(#p4f4ef08fba)" style="fill: none; stroke: #000000; stroke-linecap: square"/>
   </g>
   <g id="patch_8">
    <path d="M 324.1125 288.57328 
L 324.1125 52.0704 
" style="fill: none; stroke: #000000; stroke-width: 0.8; stroke-linejoin: miter; stroke-linecap: square"/>
   </g>
   <g id="patch_9">
    <path d="M 520.6425 288.57328 
L 520.6425 52.0704 
" style="fill: none; stroke: #000000; stroke-width: 0.8; stroke-linejoin: miter; stroke-linecap: square"/>
   </g>
   <g id="patch_10">
    <path d="M 324.1125 288.57328 
L 520.6425 288.57328 
" style="fill: none; stroke: #000000; stroke-width: 0.8; stroke-linejoin: miter; stroke-linecap: square"/>
   </g>
   <g id="patch_11">
    <path d="M 324.1125 52.0704 
L 520.6425 52.0704 
" style="fill: none; stroke: #000000; stroke-width: 0.8; stroke-linejoin: miter; stroke-linecap: square"/>
   </g>
   <g id="text_26">
    <!-- (B) -->
    <g transform="translate(330.0084 70.275486) scale(0.16 -0.16)">
     <defs>
      <path id="TimesNewRomanPSMT-42" d="M 2956 2163 
Q 3397 2069 3616 1863 
Q 3919 1575 3919 1159 
Q 3919 844 3719 555 
Q 3519 266 3170 133 
Q 2822 0 2106 0 
L 106 0 
L 106 116 
L 266 116 
Q 531 116 647 284 
Q 719 394 719 750 
L 719 3488 
Q 719 3881 628 3984 
Q 506 4122 266 4122 
L 106 4122 
L 106 4238 
L 1938 4238 
Q 2450 4238 2759 4163 
Q 3228 4050 3475 3764 
Q 3722 3478 3722 3106 
Q 3722 2788 3528 2536 
Q 3334 2284 2956 2163 
z
M 1319 2331 
Q 1434 2309 1582 2298 
Q 1731 2288 1909 2288 
Q 2366 2288 2595 2386 
Q 2825 2484 2947 2687 
Q 3069 2891 3069 3131 
Q 3069 3503 2766 3765 
Q 2463 4028 1881 4028 
Q 1569 4028 1319 3959 
L 1319 2331 
z
M 1319 306 
Q 1681 222 2034 222 
Q 2600 222 2897 476 
Q 3194 731 3194 1106 
Q 3194 1353 3059 1581 
Q 2925 1809 2622 1940 
Q 2319 2072 1872 2072 
Q 1678 2072 1540 2065 
Q 1403 2059 1319 2044 
L 1319 306 
z
" transform="scale(0.015625)"/>
     </defs>
     <use xlink:href="#TimesNewRomanPSMT-28"/>
     <use xlink:href="#TimesNewRomanPSMT-42" transform="translate(33.300781 0)"/>
     <use xlink:href="#TimesNewRomanPSMT-29" transform="translate(100 0)"/>
    </g>
   </g>
   <g id="text_27">
    <!-- *** -->
    <g transform="translate(410.3775 67.56813) scale(0.16 -0.16)">
     <use xlink:href="#TimesNewRomanPSMT-2a"/>
     <use xlink:href="#TimesNewRomanPSMT-2a" transform="translate(50 0)"/>
     <use xlink:href="#TimesNewRomanPSMT-2a" transform="translate(100 0)"/>
    </g>
   </g>
   <g id="text_28">
    <!-- p = 2.39e-10 -->
    <g transform="translate(381.65125 80.941766) scale(0.16 -0.16)">
     <use xlink:href="#TimesNewRomanPSMT-70"/>
     <use xlink:href="#TimesNewRomanPSMT-20" transform="translate(50 0)"/>
     <use xlink:href="#TimesNewRomanPSMT-3d" transform="translate(75 0)"/>
     <use xlink:href="#TimesNewRomanPSMT-20" transform="translate(131.396484 0)"/>
     <use xlink:href="#TimesNewRomanPSMT-32" transform="translate(156.396484 0)"/>
     <use xlink:href="#TimesNewRomanPSMT-2e" transform="translate(206.396484 0)"/>
     <use xlink:href="#TimesNewRomanPSMT-33" transform="translate(231.396484 0)"/>
     <use xlink:href="#TimesNewRomanPSMT-39" transform="translate(281.396484 0)"/>
     <use xlink:href="#TimesNewRomanPSMT-65" transform="translate(331.396484 0)"/>
     <use xlink:href="#TimesNewRomanPSMT-2d" transform="translate(375.78125 0)"/>
     <use xlink:href="#TimesNewRomanPSMT-31" transform="translate(409.082031 0)"/>
     <use xlink:href="#TimesNewRomanPSMT-30" transform="translate(459.082031 0)"/>
    </g>
   </g>
   <g id="text_29">
    <!-- Codelength -->
    <g transform="translate(385.49375 44.0704) scale(0.16 -0.16)">
     <use xlink:href="#TimesNewRomanPSMT-43"/>
     <use xlink:href="#TimesNewRomanPSMT-6f" transform="translate(66.699219 0)"/>
     <use xlink:href="#TimesNewRomanPSMT-64" transform="translate(116.699219 0)"/>
     <use xlink:href="#TimesNewRomanPSMT-65" transform="translate(166.699219 0)"/>
     <use xlink:href="#TimesNewRomanPSMT-6c" transform="translate(211.083984 0)"/>
     <use xlink:href="#TimesNewRomanPSMT-65" transform="translate(238.867188 0)"/>
     <use xlink:href="#TimesNewRomanPSMT-6e" transform="translate(283.251953 0)"/>
     <use xlink:href="#TimesNewRomanPSMT-67" transform="translate(333.251953 0)"/>
     <use xlink:href="#TimesNewRomanPSMT-74" transform="translate(383.251953 0)"/>
     <use xlink:href="#TimesNewRomanPSMT-68" transform="translate(411.035156 0)"/>
    </g>
   </g>
  </g>
  <g id="text_30">
   <!-- Community Detection Metrics Comparison -->
   <g transform="translate(71.211094 18.87625) scale(0.22 -0.22)">
    <defs>
     <path id="TimesNewRomanPSMT-6d" d="M 1050 2338 
Q 1363 2650 1419 2697 
Q 1559 2816 1721 2881 
Q 1884 2947 2044 2947 
Q 2313 2947 2506 2790 
Q 2700 2634 2766 2338 
Q 3088 2713 3309 2830 
Q 3531 2947 3766 2947 
Q 3994 2947 4170 2830 
Q 4347 2713 4450 2447 
Q 4519 2266 4519 1878 
L 4519 647 
Q 4519 378 4559 278 
Q 4591 209 4675 161 
Q 4759 113 4950 113 
L 4950 0 
L 3538 0 
L 3538 113 
L 3597 113 
Q 3781 113 3884 184 
Q 3956 234 3988 344 
Q 4000 397 4000 647 
L 4000 1878 
Q 4000 2228 3916 2372 
Q 3794 2572 3525 2572 
Q 3359 2572 3192 2489 
Q 3025 2406 2788 2181 
L 2781 2147 
L 2788 2013 
L 2788 647 
Q 2788 353 2820 281 
Q 2853 209 2943 161 
Q 3034 113 3253 113 
L 3253 0 
L 1806 0 
L 1806 113 
Q 2044 113 2133 169 
Q 2222 225 2256 338 
Q 2272 391 2272 647 
L 2272 1878 
Q 2272 2228 2169 2381 
Q 2031 2581 1784 2581 
Q 1616 2581 1450 2491 
Q 1191 2353 1050 2181 
L 1050 647 
Q 1050 366 1089 281 
Q 1128 197 1204 155 
Q 1281 113 1516 113 
L 1516 0 
L 100 0 
L 100 113 
Q 297 113 375 155 
Q 453 197 493 289 
Q 534 381 534 647 
L 534 1741 
Q 534 2213 506 2350 
Q 484 2453 437 2492 
Q 391 2531 309 2531 
Q 222 2531 100 2484 
L 53 2597 
L 916 2947 
L 1050 2947 
L 1050 2338 
z
" transform="scale(0.015625)"/>
     <path id="TimesNewRomanPSMT-44" d="M 109 0 
L 109 116 
L 269 116 
Q 538 116 650 288 
Q 719 391 719 750 
L 719 3488 
Q 719 3884 631 3984 
Q 509 4122 269 4122 
L 109 4122 
L 109 4238 
L 1834 4238 
Q 2784 4238 3279 4022 
Q 3775 3806 4076 3303 
Q 4378 2800 4378 2141 
Q 4378 1256 3841 663 
Q 3238 0 2003 0 
L 109 0 
z
M 1319 306 
Q 1716 219 1984 219 
Q 2709 219 3187 728 
Q 3666 1238 3666 2109 
Q 3666 2988 3187 3494 
Q 2709 4000 1959 4000 
Q 1678 4000 1319 3909 
L 1319 306 
z
" transform="scale(0.015625)"/>
     <path id="TimesNewRomanPSMT-63" d="M 2631 1088 
Q 2516 522 2178 217 
Q 1841 -88 1431 -88 
Q 944 -88 581 321 
Q 219 731 219 1428 
Q 219 2103 620 2525 
Q 1022 2947 1584 2947 
Q 2006 2947 2278 2723 
Q 2550 2500 2550 2259 
Q 2550 2141 2473 2067 
Q 2397 1994 2259 1994 
Q 2075 1994 1981 2113 
Q 1928 2178 1911 2362 
Q 1894 2547 1784 2644 
Q 1675 2738 1481 2738 
Q 1169 2738 978 2506 
Q 725 2200 725 1697 
Q 725 1184 976 792 
Q 1228 400 1656 400 
Q 1963 400 2206 609 
Q 2378 753 2541 1131 
L 2631 1088 
z
" transform="scale(0.015625)"/>
     <path id="TimesNewRomanPSMT-73" d="M 2050 2947 
L 2050 1972 
L 1947 1972 
Q 1828 2431 1642 2597 
Q 1456 2763 1169 2763 
Q 950 2763 815 2647 
Q 681 2531 681 2391 
Q 681 2216 781 2091 
Q 878 1963 1175 1819 
L 1631 1597 
Q 2266 1288 2266 781 
Q 2266 391 1970 151 
Q 1675 -88 1309 -88 
Q 1047 -88 709 6 
Q 606 38 541 38 
Q 469 38 428 -44 
L 325 -44 
L 325 978 
L 428 978 
Q 516 541 762 319 
Q 1009 97 1316 97 
Q 1531 97 1667 223 
Q 1803 350 1803 528 
Q 1803 744 1651 891 
Q 1500 1038 1047 1263 
Q 594 1488 453 1669 
Q 313 1847 313 2119 
Q 313 2472 555 2709 
Q 797 2947 1181 2947 
Q 1350 2947 1591 2875 
Q 1750 2828 1803 2828 
Q 1853 2828 1881 2850 
Q 1909 2872 1947 2947 
L 2050 2947 
z
" transform="scale(0.015625)"/>
    </defs>
    <use xlink:href="#TimesNewRomanPSMT-43"/>
    <use xlink:href="#TimesNewRomanPSMT-6f" transform="translate(66.699219 0)"/>
    <use xlink:href="#TimesNewRomanPSMT-6d" transform="translate(116.699219 0)"/>
    <use xlink:href="#TimesNewRomanPSMT-6d" transform="translate(194.482422 0)"/>
    <use xlink:href="#TimesNewRomanPSMT-75" transform="translate(272.265625 0)"/>
    <use xlink:href="#TimesNewRomanPSMT-6e" transform="translate(322.265625 0)"/>
    <use xlink:href="#TimesNewRomanPSMT-69" transform="translate(372.265625 0)"/>
    <use xlink:href="#TimesNewRomanPSMT-74" transform="translate(400.048828 0)"/>
    <use xlink:href="#TimesNewRomanPSMT-79" transform="translate(427.832031 0)"/>
    <use xlink:href="#TimesNewRomanPSMT-20" transform="translate(477.832031 0)"/>
    <use xlink:href="#TimesNewRomanPSMT-44" transform="translate(502.832031 0)"/>
    <use xlink:href="#TimesNewRomanPSMT-65" transform="translate(575.048828 0)"/>
    <use xlink:href="#TimesNewRomanPSMT-74" transform="translate(619.433594 0)"/>
    <use xlink:href="#TimesNewRomanPSMT-65" transform="translate(647.216797 0)"/>
    <use xlink:href="#TimesNewRomanPSMT-63" transform="translate(691.601562 0)"/>
    <use xlink:href="#TimesNewRomanPSMT-74" transform="translate(735.986328 0)"/>
    <use xlink:href="#TimesNewRomanPSMT-69" transform="translate(763.769531 0)"/>
    <use xlink:href="#TimesNewRomanPSMT-6f" transform="translate(791.552734 0)"/>
    <use xlink:href="#TimesNewRomanPSMT-6e" transform="translate(841.552734 0)"/>
    <use xlink:href="#TimesNewRomanPSMT-20" transform="translate(891.552734 0)"/>
    <use xlink:href="#TimesNewRomanPSMT-4d" transform="translate(916.552734 0)"/>
    <use xlink:href="#TimesNewRomanPSMT-65" transform="translate(1005.46875 0)"/>
    <use xlink:href="#TimesNewRomanPSMT-74" transform="translate(1049.853516 0)"/>
    <use xlink:href="#TimesNewRomanPSMT-72" transform="translate(1077.636719 0)"/>
    <use xlink:href="#TimesNewRomanPSMT-69" transform="translate(1110.9375 0)"/>
    <use xlink:href="#TimesNewRomanPSMT-63" transform="translate(1138.720703 0)"/>
    <use xlink:href="#TimesNewRomanPSMT-73" transform="translate(1183.105469 0)"/>
    <use xlink:href="#TimesNewRomanPSMT-20" transform="translate(1222.021484 0)"/>
    <use xlink:href="#TimesNewRomanPSMT-43" transform="translate(1247.021484 0)"/>
    <use xlink:href="#TimesNewRomanPSMT-6f" transform="translate(1313.720703 0)"/>
    <use xlink:href="#TimesNewRomanPSMT-6d" transform="translate(1363.720703 0)"/>
    <use xlink:href="#TimesNewRomanPSMT-70" transform="translate(1441.503906 0)"/>
    <use xlink:href="#TimesNewRomanPSMT-61" transform="translate(1491.503906 0)"/>
    <use xlink:href="#TimesNewRomanPSMT-72" transform="translate(1535.888672 0)"/>
    <use xlink:href="#TimesNewRomanPSMT-69" transform="translate(1569.189453 0)"/>
    <use xlink:href="#TimesNewRomanPSMT-73" transform="translate(1596.972656 0)"/>
    <use xlink:href="#TimesNewRomanPSMT-6f" transform="translate(1635.888672 0)"/>
    <use xlink:href="#TimesNewRomanPSMT-6e" transform="translate(1685.888672 0)"/>
   </g>
  </g>
 </g>
 <defs>
  <clipPath id="p3b5a433957">
   <rect x="56.6625" y="52.0704" width="196.53" height="236.50288"/>
  </clipPath>
  <clipPath id="p4f4ef08fba">
   <rect x="324.1125" y="52.0704" width="196.53" height="236.50288"/>
  </clipPath>
 </defs>
</svg>
